<?xml version="1.0" encoding="UTF-8"?>
<svg version="1.1" xmlns="http://www.w3.org/2000/svg" width="247" height="186">
<path d="M0 0 C0 0.66 0 1.32 0 2 C-1.33804688 2.30744141 -1.33804688 2.30744141 -2.703125 2.62109375 C-3.87359375 2.89050781 -5.0440625 3.15992188 -6.25 3.4375 C-7.41015625 3.70433594 -8.5703125 3.97117187 -9.765625 4.24609375 C-12.18349761 4.80968 -14.59443304 5.38669951 -17 6 C-15.97261719 6.15855469 -14.94523438 6.31710938 -13.88671875 6.48046875 C-2.76669328 8.30869457 6.77822952 11.27059992 16 18 C15.67 18.66 15.34 19.32 15 20 C6.09 20 -2.82 20 -12 20 C-12 20.66 -12 21.32 -12 22 C-10.96875 22.2475 -9.9375 22.495 -8.875 22.75 C-5.06725852 23.8357104 -2.13597885 25.55240675 1 28 C1 28.66 1 29.32 1 30 C1.721875 30.20625 2.44375 30.4125 3.1875 30.625 C6.9255306 32.45248163 8.49246917 34.70438806 11 38 C10 39 10 39 7.125 39.1875 C1.99693714 39.13397116 -2.99089164 38.01450296 -8 37 C-7.17757812 37.58265625 -6.35515625 38.1653125 -5.5078125 38.765625 C2.39956777 44.51612292 9.69395089 50.66010942 15 59 C14.67 59.99 14.34 60.98 14 62 C12.51113281 61.41992188 12.51113281 61.41992188 10.9921875 60.828125 C2.09302908 57.40283011 -6.77569 54.45020734 -16 52 C-15.24460938 52.75023437 -14.48921875 53.50046875 -13.7109375 54.2734375 C2.5410642 70.61911068 2.5410642 70.61911068 4 81 C0.10315477 80.33170046 -2.76690176 78.46585485 -6.125 76.4375 C-14.41336887 71.53788287 -23.15504569 67.77063812 -32 64 C-31.54109375 64.67804688 -31.0821875 65.35609375 -30.609375 66.0546875 C-26.57994611 72.16655232 -23.35820127 78.06759929 -21 85 C-20.66162109 85.99193359 -20.66162109 85.99193359 -20.31640625 87.00390625 C-19.24976028 90.40981718 -18.78404548 93.43675048 -19 97 C-21.91758044 95.68710855 -23.92954905 94.2962062 -26.13671875 91.98828125 C-26.71019043 91.39805176 -27.28366211 90.80782227 -27.87451172 90.19970703 C-28.77194092 89.26553955 -28.77194092 89.26553955 -29.6875 88.3125 C-34.82215723 83.05971209 -40.0268417 78.2994433 -46 74 C-45.67515625 75.26070313 -45.3503125 76.52140625 -45.015625 77.8203125 C-43.82276196 83.20084139 -43.70345279 88.38242955 -43.75 93.875 C-43.73839844 95.27878906 -43.73839844 95.27878906 -43.7265625 96.7109375 C-43.72914063 97.608125 -43.73171875 98.5053125 -43.734375 99.4296875 C-43.73663086 100.23647949 -43.73888672 101.04327148 -43.74121094 101.87451172 C-44 104 -44 104 -46 107 C-47.64616818 103.87517628 -49.29187754 100.75011114 -50.9375 97.625 C-51.40607422 96.73554687 -51.87464844 95.84609375 -52.35742188 94.9296875 C-53.0293457 93.65351563 -53.0293457 93.65351563 -53.71484375 92.3515625 C-54.33540649 91.17327881 -54.33540649 91.17327881 -54.96850586 89.97119141 C-55.65788624 88.65378141 -56.33504671 87.32990658 -57 86 C-56.34318269 90.79924463 -55.02527419 95.23395665 -53.5 99.8125 C-51.65671001 105.5699286 -50.1540551 110.91995854 -50 117 C-49.94972656 118.03125 -49.89945312 119.0625 -49.84765625 120.125 C-49.42533043 135.26115743 -52.57102969 148.35654453 -61 161 C-61.66 161 -62.32 161 -63 161 C-63.33 161.99 -63.66 162.98 -64 164 C-65.23701372 160.28895884 -64.42126979 159.51137242 -63 156 C-62.95846842 154.33385088 -62.95263898 152.66599361 -63 151 C-63.36351562 151.50789062 -63.72703125 152.01578125 -64.1015625 152.5390625 C-67.43087454 157.09765899 -70.81768729 161.19789754 -75 165 C-75.66 165 -76.32 165 -77 165 C-76.34092213 160.62005213 -74.7425251 156.82040956 -72.9375 152.8125 C-70.82193244 148.56771552 -70.82193244 148.56771552 -70 144 C-70.66 144 -71.32 144 -72 144 C-72 144.66 -72 145.32 -72 146 C-88.25540275 160 -88.25540275 160 -95 160 C-92.94360581 155.10382335 -89.2971809 151.21977382 -85.98828125 147.1328125 C-82.55519646 142.84737112 -82.55519646 142.84737112 -80 138 C-81.12535156 138.59748047 -81.12535156 138.59748047 -82.2734375 139.20703125 C-98.74066667 147.731 -98.74066667 147.731 -108 147 C-105.51328615 145.00974239 -103.02576508 143.02053857 -100.53515625 141.03515625 C-98.82424629 139.67021229 -97.11747603 138.30006916 -95.4140625 136.92578125 C-93.61948329 135.49418327 -91.78751879 134.10919748 -89.9375 132.75 C-84.75653351 128.43252792 -79.11832775 121.35498325 -77 115 C-85.13305233 110.52035061 -93.17025287 106.14410605 -101.875 102.875 C-118.4454635 96.42604973 -126.18804034 86.83625691 -133.26171875 70.96875 C-135.17495403 67.7012021 -136.57148287 66.52317879 -140 65 C-143.47750746 65.08481726 -144.70244128 65.73460979 -147.3125 68.0625 C-147.869375 68.701875 -148.42625 69.34125 -149 70 C-149.99 69.67 -150.98 69.34 -152 69 C-152.5185041 63.55570699 -151.00498983 61.42445917 -148 57 C-146.86882451 54.67964001 -145.76517775 52.34568522 -144.6875 50 C-141.94556021 44.28818593 -139.33018919 40.51993626 -134 37 C-124.54736291 34.1167632 -115.12770144 37.32907431 -106.6328125 41.75390625 C-104.59290469 42.94842439 -102.56639772 44.16633629 -100.55859375 45.4140625 C-98.41096527 46.74526428 -96.27942982 47.91660042 -94 49 C-92.14446077 47.00125823 -90.29030703 45.00127264 -88.4375 43 C-87.88610352 42.40493652 -87.33470703 41.80987305 -86.76660156 41.19677734 C-83.86487557 38.05537322 -81.01602965 34.88749651 -78.25 31.625 C-74.81197241 27.67580284 -71.06061835 24.2988156 -67 21 C-65.70642578 19.93265625 -65.70642578 19.93265625 -64.38671875 18.84375 C-46.67043486 4.84333079 -22.8683131 -5.25804279 0 0 Z " fill="#C62F6B" transform="translate(202,19)"/>
<path d="M0 0 C1.32 0.33 2.64 0.66 4 1 C3.835 2.19625 3.67 3.3925 3.5 4.625 C3.4175 5.35589844 3.335 6.08679688 3.25 6.83984375 C3.04306324 8.6279067 2.77894164 10.40924707 2.5 12.1875 C2.69032172 14.99827568 2.69032172 14.99827568 4.421875 16.19921875 C5.66875188 17.00116307 6.92166939 17.79377363 8.1796875 18.578125 C12.05986724 21.60899501 13.48769321 26.46307963 15 31 C10.96293439 32.11367327 7.16604332 32 3 32 C1.37515835 35.24968331 1.65956034 38.85921167 1.5 42.4375 C1.13434803 50.5969559 1.13434803 50.5969559 0 54 C-0.99 54.495 -0.99 54.495 -2 55 C-1.34 56.32 -0.68 57.64 0 59 C1.485 48.605 1.485 48.605 3 38 C3.99 38.33 4.98 38.66 6 39 C7 41.33333333 8 43.66666667 9 46 C9.99 46.33 10.98 46.66 12 47 C12.69937532 48.31647119 13.36729133 49.65022151 14 51 C14.66 51.33 15.32 51.66 16 52 C16 50.35 16 48.7 16 47 C17.65 47.33 19.3 47.66 21 48 C25.69967973 63.36685976 25.69967973 63.36685976 26 71 C26.0515625 72.03382813 26.103125 73.06765625 26.15625 74.1328125 C26.56260097 89.26938603 23.43048513 102.3542723 15 115 C14.34 115 13.68 115 13 115 C12.505 116.485 12.505 116.485 12 118 C10.76298628 114.28895884 11.57873021 113.51137242 13 110 C13.04153158 108.33385088 13.04736102 106.66599361 13 105 C12.63648438 105.50789063 12.27296875 106.01578125 11.8984375 106.5390625 C8.56912546 111.09765899 5.18231271 115.19789754 1 119 C0.34 119 -0.32 119 -1 119 C-0.34092213 114.62005213 1.2574749 110.82040956 3.0625 106.8125 C5.17806756 102.56771552 5.17806756 102.56771552 6 98 C5.34 98 4.68 98 4 98 C4 98.66 4 99.32 4 100 C-12.25540275 114 -12.25540275 114 -19 114 C-16.94360581 109.10382335 -13.2971809 105.21977382 -9.98828125 101.1328125 C-6.55519646 96.84737112 -6.55519646 96.84737112 -4 92 C-4.75023437 92.39832031 -5.50046875 92.79664063 -6.2734375 93.20703125 C-22.74066667 101.731 -22.74066667 101.731 -32 101 C-29.51328615 99.00974239 -27.02576508 97.02053857 -24.53515625 95.03515625 C-22.82424629 93.67021229 -21.11747603 92.30006916 -19.4140625 90.92578125 C-17.61948329 89.49418327 -15.78751879 88.10919748 -13.9375 86.75 C-8.75653351 82.43252792 -3.11832775 75.35498325 -1 69 C-9.132766 64.52050832 -17.16982037 60.14242359 -25.875 56.875 C-36.03969219 52.93645154 -45.7308513 48.02301787 -51 38 C-51.78583201 34.86143457 -51.94816368 32.26568831 -52 29 C-48.37 29 -44.74 29 -41 29 C-41 28.34 -41 27.68 -41 27 C-33.375 24.875 -33.375 24.875 -30 26 C-30 27.98 -30 29.96 -30 32 C-23.40046907 28.83222515 -19.29109701 24.58219402 -16 18 C-15.34 18 -14.68 18 -14 18 C-13.7525 17.484375 -13.505 16.96875 -13.25 16.4375 C-12.63125 15.2309375 -12.63125 15.2309375 -12 14 C-11.401875 12.824375 -10.80375 11.64875 -10.1875 10.4375 C-8.30551138 7.13699757 -6.36332772 5.81102262 -3 4 C-1.21655822 1.93045153 -1.21655822 1.93045153 0 0 Z " fill="#980E40" transform="translate(126,65)"/>
<path d="M0 0 C0 0.66 0 1.32 0 2 C-0.72960937 2.15855469 -1.45921875 2.31710938 -2.2109375 2.48046875 C-5.12149106 3.13085171 -8.02451482 3.80720535 -10.92431641 4.50390625 C-12.34442724 4.84331641 -13.76607259 5.1763522 -15.18896484 5.50390625 C-28.62067619 8.63768207 -38.1377465 12.97580474 -48 23 C-49.06782385 23.91426511 -50.14806411 24.81465078 -51.25 25.6875 C-54.01742194 27.7042322 -54.01742194 27.7042322 -55 30 C-55.66 30 -56.32 30 -57 30 C-57.20625 30.680625 -57.4125 31.36125 -57.625 32.0625 C-59.17327792 35.37018464 -61.1311288 37.59553011 -63.54296875 40.30078125 C-66.31571258 43.53441011 -68.11776744 47.2116082 -70 51 C-69.24074219 51.10957031 -68.48148437 51.21914062 -67.69921875 51.33203125 C-66.70535156 51.49058594 -65.71148437 51.64914063 -64.6875 51.8125 C-63.70136719 51.96332031 -62.71523437 52.11414063 -61.69921875 52.26953125 C-58.87300731 53.03436705 -57.8040872 53.75258762 -56 56 C-56.99 58.97 -56.99 58.97 -58 62 C-54.99228169 64.64965661 -52.47078898 66.76460551 -48.875 68.5625 C-45.94795591 70.02602205 -44.16966273 71.57999157 -42 74 C-42.33 74.66 -42.66 75.32 -43 76 C-44.485 75.01 -44.485 75.01 -46 74 C-45.67515625 75.26070313 -45.3503125 76.52140625 -45.015625 77.8203125 C-43.82276196 83.20084139 -43.70345279 88.38242955 -43.75 93.875 C-43.73839844 95.27878906 -43.73839844 95.27878906 -43.7265625 96.7109375 C-43.72914063 97.608125 -43.73171875 98.5053125 -43.734375 99.4296875 C-43.73663086 100.23647949 -43.73888672 101.04327148 -43.74121094 101.87451172 C-44 104 -44 104 -46 107 C-47.64616818 103.87517628 -49.29187754 100.75011114 -50.9375 97.625 C-51.40607422 96.73554687 -51.87464844 95.84609375 -52.35742188 94.9296875 C-53.0293457 93.65351563 -53.0293457 93.65351563 -53.71484375 92.3515625 C-54.33540649 91.17327881 -54.33540649 91.17327881 -54.96850586 89.97119141 C-55.65788624 88.65378141 -56.33504671 87.32990658 -57 86 C-56.505 89.96 -56.505 89.96 -56 94 C-57.98 93.505 -57.98 93.505 -60 93 C-60 94.65 -60 96.3 -60 98 C-61.485 97.505 -61.485 97.505 -63 97 C-63.6875 94.9375 -63.6875 94.9375 -64 93 C-65.98 92.505 -65.98 92.505 -68 92 C-68.99 88.535 -68.99 88.535 -70 85 C-70.66 85 -71.32 85 -72 85 C-72.99 91.6 -73.98 98.2 -75 105 C-75.99 105 -76.98 105 -78 105 C-78.33 103.02 -78.66 101.04 -79 99 C-77.515 99.495 -77.515 99.495 -76 100 C-75.98018066 99.40985107 -75.96036133 98.81970215 -75.93994141 98.21166992 C-75.84465341 95.53649904 -75.73499061 92.86210502 -75.625 90.1875 C-75.5940625 89.25873047 -75.563125 88.32996094 -75.53125 87.37304688 C-75.49257812 86.48037109 -75.45390625 85.58769531 -75.4140625 84.66796875 C-75.36693115 83.43469849 -75.36693115 83.43469849 -75.31884766 82.17651367 C-75 80 -75 80 -73 77 C-70.5625 76.8125 -70.5625 76.8125 -68 77 C-67.01 77 -66.02 77 -65 77 C-63.68 77 -62.36 77 -61 77 C-61.3609375 76.45730469 -61.721875 75.91460937 -62.09375 75.35546875 C-62.5578125 74.64003906 -63.021875 73.92460938 -63.5 73.1875 C-63.9640625 72.47980469 -64.428125 71.77210937 -64.90625 71.04296875 C-66 69 -66 69 -66 66 C-66.763125 65.731875 -67.52625 65.46375 -68.3125 65.1875 C-70.99488197 64.00226146 -72.22258493 63.28084477 -74 61 C-74.36328125 58.66015625 -74.36328125 58.66015625 -74.3125 56.0625 C-74.30863281 55.20785156 -74.30476563 54.35320312 -74.30078125 53.47265625 C-73.98780141 50.89971808 -73.29573378 49.22494525 -72 47 C-73.98 46.505 -73.98 46.505 -76 46 C-76.268125 46.598125 -76.53625 47.19625 -76.8125 47.8125 C-78.00987475 50.01819033 -79.04478984 51.43583187 -81 53 C-81.99 53 -82.98 53 -84 53 C-84.37125 54.3303125 -84.37125 54.3303125 -84.75 55.6875 C-86.04964625 59.13156256 -87.48729227 61.33024803 -90 64 C-90.66 64 -91.32 64 -92 64 C-92.226875 64.70125 -92.45375 65.4025 -92.6875 66.125 C-94.91177926 70.99723077 -98.37498038 75.22498823 -103 78 C-103.99 78 -104.98 78 -106 78 C-106.33 76.02 -106.66 74.04 -107 72 C-111.95 72.495 -111.95 72.495 -117 73 C-117 73.66 -117 74.32 -117 75 C-120.63 75 -124.26 75 -128 75 C-127.01 78.465 -127.01 78.465 -126 82 C-126.66 82 -127.32 82 -128 82 C-128.44730469 81.02417969 -128.89460938 80.04835938 -129.35546875 79.04296875 C-129.96538566 77.75745156 -130.57610528 76.472315 -131.1875 75.1875 C-131.47947266 74.54490234 -131.77144531 73.90230469 -132.07226562 73.24023438 C-134.06249135 69.10998099 -135.75910087 66.83316285 -140 65 C-143.47750746 65.08481726 -144.70244128 65.73460979 -147.3125 68.0625 C-147.869375 68.701875 -148.42625 69.34125 -149 70 C-149.99 69.67 -150.98 69.34 -152 69 C-152.5185041 63.55570699 -151.00498983 61.42445917 -148 57 C-146.86882451 54.67964001 -145.76517775 52.34568522 -144.6875 50 C-141.94556021 44.28818593 -139.33018919 40.51993626 -134 37 C-124.54736291 34.1167632 -115.12770144 37.32907431 -106.6328125 41.75390625 C-104.59290469 42.94842439 -102.56639772 44.16633629 -100.55859375 45.4140625 C-98.41096527 46.74526428 -96.27942982 47.91660042 -94 49 C-92.14446077 47.00125823 -90.29030703 45.00127264 -88.4375 43 C-87.88610352 42.40493652 -87.33470703 41.80987305 -86.76660156 41.19677734 C-83.86487557 38.05537322 -81.01602965 34.88749651 -78.25 31.625 C-74.81197241 27.67580284 -71.06061835 24.2988156 -67 21 C-65.70642578 19.93265625 -65.70642578 19.93265625 -64.38671875 18.84375 C-46.67043486 4.84333079 -22.8683131 -5.25804279 0 0 Z " fill="#4F076E" transform="translate(202,19)"/>
<path d="M0 0 C1.32 0.33 2.64 0.66 4 1 C3.835 2.19625 3.67 3.3925 3.5 4.625 C3.4175 5.35589844 3.335 6.08679688 3.25 6.83984375 C3.04306324 8.6279067 2.77894164 10.40924707 2.5 12.1875 C2.69032172 14.99827568 2.69032172 14.99827568 4.421875 16.19921875 C5.66875188 17.00116307 6.92166939 17.79377363 8.1796875 18.578125 C12.05986724 21.60899501 13.48769321 26.46307963 15 31 C10.96293439 32.11367327 7.16604332 32 3 32 C1.37515835 35.24968331 1.65956034 38.85921167 1.5 42.4375 C1.13434803 50.5969559 1.13434803 50.5969559 0 54 C-1.875 53.875 -1.875 53.875 -4 53 C-5.25 49.9375 -5.25 49.9375 -6 47 C-8.17038477 47.79299706 -8.17038477 47.79299706 -8.6328125 49.84765625 C-8.79523438 50.57855469 -8.95765625 51.30945313 -9.125 52.0625 C-9.29257813 52.79597656 -9.46015625 53.52945313 -9.6328125 54.28515625 C-9.81457031 55.13400391 -9.81457031 55.13400391 -10 56 C-10.66 56 -11.32 56 -12 56 C-12.495 56.99 -12.495 56.99 -13 58 C-13.268125 57.030625 -13.53625 56.06125 -13.8125 55.0625 C-14.67463051 52.07255804 -15.56452997 49.09286176 -16.5 46.125 C-16.7371875 45.36445312 -16.974375 44.60390625 -17.21875 43.8203125 C-17.85169014 41.80517709 -17.85169014 41.80517709 -20 41 C-20.33 41.99 -20.66 42.98 -21 44 C-23 44.66666667 -25 45.33333333 -27 46 C-27.33 46.99 -27.66 47.98 -28 49 C-29.11375 49.12375 -30.2275 49.2475 -31.375 49.375 C-35.03103677 49.6465813 -35.03103677 49.6465813 -37 52 C-50.0043518 42.67879795 -50.0043518 42.67879795 -51.51953125 35.55859375 C-51.77506081 33.3814819 -51.89893575 31.18972541 -52 29 C-48.37 29 -44.74 29 -41 29 C-41 28.34 -41 27.68 -41 27 C-33.375 24.875 -33.375 24.875 -30 26 C-30 27.98 -30 29.96 -30 32 C-23.40046907 28.83222515 -19.29109701 24.58219402 -16 18 C-15.34 18 -14.68 18 -14 18 C-13.7525 17.484375 -13.505 16.96875 -13.25 16.4375 C-12.63125 15.2309375 -12.63125 15.2309375 -12 14 C-11.401875 12.824375 -10.80375 11.64875 -10.1875 10.4375 C-8.30551138 7.13699757 -6.36332772 5.81102262 -3 4 C-1.21655822 1.93045153 -1.21655822 1.93045153 0 0 Z " fill="#222D85" transform="translate(126,65)"/>
<path d="M0 0 C2.66881371 2.03761809 3.94360798 3.91043945 5.4609375 6.87890625 C0.13333116 15.36361265 -8.12172417 23.98744413 -17.5390625 27.87890625 C-23.2786107 28.44160705 -28.36699829 27.36567652 -33.5390625 24.87890625 C-34.57553274 23.5737215 -35.58329193 22.24429278 -36.5390625 20.87890625 C-40.19784612 19.68582463 -41.83903942 19.55222881 -45.3515625 21.19140625 C-47.62821876 22.69469213 -47.62821876 22.69469213 -48.5390625 24.87890625 C-49.5290625 24.54890625 -50.5190625 24.21890625 -51.5390625 23.87890625 C-52.0575666 18.43461324 -50.54405233 16.30336542 -47.5390625 11.87890625 C-46.40788701 9.55854626 -45.30424025 7.22459147 -44.2265625 4.87890625 C-41.48462271 -0.83290782 -38.86925169 -4.60115749 -33.5390625 -8.12109375 C-21.72491926 -11.72463551 -10.08603188 -5.82718464 0 0 Z " fill="#EF8C5A" transform="translate(101.5390625,64.12109375)"/>
<path d="M0 0 C12.82930917 -0.69243648 23.84746549 1.51125265 35 8 C37.5 10.25 37.5 10.25 39 12 C38 13 38 13 35.40795898 13.11352539 C34.28204346 13.10828857 33.15612793 13.10305176 31.99609375 13.09765625 C30.78115234 13.09443359 29.56621094 13.09121094 28.31445312 13.08789062 C27.03505859 13.07951172 25.75566406 13.07113281 24.4375 13.0625 C23.15423828 13.05798828 21.87097656 13.05347656 20.54882812 13.04882812 C17.36583978 13.03699545 14.18294238 13.02051068 11 13 C11 13.66 11 14.32 11 15 C12.03125 15.2475 13.0625 15.495 14.125 15.75 C17.93274148 16.8357104 20.86402115 18.55240675 24 21 C24 21.66 24 22.32 24 23 C24.721875 23.20625 25.44375 23.4125 26.1875 23.625 C29.9255306 25.45248163 31.49246917 27.70438806 34 31 C33 32 33 32 29.9609375 32.17578125 C25.64129485 31.98408113 21.80752812 31.20852622 17.625 30.1875 C8.80008807 28.12299874 -0.06274228 26.49331395 -9 25 C-7.68 24.67 -6.36 24.34 -5 24 C-4.34 21.36 -3.68 18.72 -3 16 C-8.28 16.33 -13.56 16.66 -19 17 C-19.33 15.68 -19.66 14.36 -20 13 C-16.51778031 10.02987144 -13.11886913 7.97362479 -9 6 C-8.113125 5.443125 -7.22625 4.88625 -6.3125 4.3125 C-4 3 -4 3 -1 3 C-0.67 2.01 -0.34 1.02 0 0 Z " fill="#EF9C58" transform="translate(179,26)"/>
<path d="M0 0 C4.4366875 0.26889015 7.11091451 2.09837876 10.28515625 5.015625 C15.86230419 11.4693634 17.83862063 18.87945379 17.40625 27.2890625 C16.20068952 35.3338603 9.65750582 41.55166253 4 47 C1.71875 48.29296875 1.71875 48.29296875 0 49 C0.65907787 44.62005213 2.2574749 40.82040956 4.0625 36.8125 C6.17806756 32.56771552 6.17806756 32.56771552 7 28 C6.34 28 5.68 28 5 28 C5 28.66 5 29.32 5 30 C-11.25540275 44 -11.25540275 44 -18 44 C-15.94360581 39.10382335 -12.2971809 35.21977382 -8.98828125 31.1328125 C-5.55519646 26.84737112 -5.55519646 26.84737112 -3 22 C-3.75023438 22.39832031 -4.50046875 22.79664063 -5.2734375 23.20703125 C-21.74066667 31.731 -21.74066667 31.731 -31 31 C-28.51328615 29.00974239 -26.02576508 27.02053857 -23.53515625 25.03515625 C-21.82424629 23.67021229 -20.11747603 22.30006916 -18.4140625 20.92578125 C-16.61948329 19.49418327 -14.78751879 18.10919748 -12.9375 16.75 C-7.8657424 12.53810935 -2.93025551 5.86051102 0 0 Z " fill="#095BA1" transform="translate(125,135)"/>
<path d="M0 0 C0 0.66 0 1.32 0 2 C-0.72960937 2.15855469 -1.45921875 2.31710938 -2.2109375 2.48046875 C-5.12149106 3.13085171 -8.02451482 3.80720535 -10.92431641 4.50390625 C-12.34442724 4.84331641 -13.76607259 5.1763522 -15.18896484 5.50390625 C-28.6627534 8.64749917 -38.06420292 13.01597089 -48 23 C-50.2714299 24.77935998 -52.61826721 26.3654775 -55 28 C-55.495 26.515 -55.495 26.515 -56 25 C-57.31878578 25.76002917 -58.6298684 26.53343653 -59.9375 27.3125 C-60.66839844 27.74175781 -61.39929688 28.17101562 -62.15234375 28.61328125 C-64.29977412 29.95110254 -64.29977412 29.95110254 -65 33 C-66.31647119 33.69937532 -67.65022151 34.36729133 -69 35 C-69.33 35.66 -69.66 36.32 -70 37 C-70.99 37 -71.98 37 -73 37 C-73.11730469 37.58394531 -73.23460937 38.16789062 -73.35546875 38.76953125 C-74.0353008 41.12216216 -74.91202729 42.68868291 -76.3125 44.6875 C-76.72113281 45.28949219 -77.12976563 45.89148438 -77.55078125 46.51171875 C-79.2913441 48.29919704 -80.57064587 48.61151053 -83 49 C-83 49.99 -83 50.98 -83 52 C-83.99 52.495 -83.99 52.495 -85 53 C-86.04808041 54.97522846 -87.0520411 56.97481509 -88 59 C-89.32 58.67 -90.64 58.34 -92 58 C-91.18971088 43.41479586 -81.39737121 33.65280202 -71.0625 24.3125 C-69.71954334 23.19472597 -68.36438841 22.09151073 -67 21 C-66.14277344 20.29359375 -65.28554687 19.5871875 -64.40234375 18.859375 C-46.69245096 4.84400897 -22.87014698 -5.25846445 0 0 Z " fill="#A52BC6" transform="translate(202,19)"/>
<path d="M0 0 C0.99 0.99 0.99 0.99 2 2 C1.625 4.125 1.625 4.125 1 6 C0.34 6 -0.32 6 -1 6 C-1.20625 6.680625 -1.4125 7.36125 -1.625 8.0625 C-3.17327792 11.37018464 -5.1311288 13.59553011 -7.54296875 16.30078125 C-10.30467337 19.52153597 -12.16906941 23.19729801 -14 27 C-14.66 27 -15.32 27 -16 27 C-16 27.99 -16 28.98 -16 30 C-16.66 30 -17.32 30 -18 30 C-17.42415568 27.61435923 -16.77772405 25.33317216 -16 23 C-17.32 22.67 -18.64 22.34 -20 22 C-20.268125 22.598125 -20.53625 23.19625 -20.8125 23.8125 C-22.00987475 26.01819033 -23.04478984 27.43583187 -25 29 C-25.99 29 -26.98 29 -28 29 C-28.2475 29.886875 -28.495 30.77375 -28.75 31.6875 C-30.04964625 35.13156256 -31.48729227 37.33024803 -34 40 C-34.66 40 -35.32 40 -36 40 C-36.226875 40.70125 -36.45375 41.4025 -36.6875 42.125 C-38.91177926 46.99723077 -42.37498038 51.22498823 -47 54 C-47.99 54 -48.98 54 -50 54 C-50.33 52.02 -50.66 50.04 -51 48 C-55.95 48.495 -55.95 48.495 -61 49 C-61 49.66 -61 50.32 -61 51 C-64.63 51 -68.26 51 -72 51 C-71.34 53.31 -70.68 55.62 -70 58 C-70.66 58 -71.32 58 -72 58 C-72.67119549 56.5437455 -73.33681807 55.08492133 -74 53.625 C-74.37125 52.81289062 -74.7425 52.00078125 -75.125 51.1640625 C-76 49 -76 49 -76 47 C-74.62328125 47.19529297 -74.62328125 47.19529297 -73.21875 47.39453125 C-63.86750597 48.50953564 -63.86750597 48.50953564 -55.73828125 44.53125 C-55.16464844 44.0259375 -54.59101562 43.520625 -54 43 C-53.37480469 42.4946875 -52.74960938 41.989375 -52.10546875 41.46875 C-50.35576425 40.02478334 -48.67272628 38.53191004 -47 37 C-46.2575 36.34 -45.515 35.68 -44.75 35 C-42.59645496 32.53880567 -41.35370344 29.96525515 -40 27 C-38.03571172 23.07142344 -34.59784209 20.39856139 -31 18 C-31.90758175 21.30619066 -32.79996899 24.52214815 -34.125 27.6875 C-35.23592806 30.21144 -35.23592806 30.21144 -35 34 C-34.01 34 -33.02 34 -32 34 C-31.01 32.02 -30.02 30.04 -29 28 C-28.34 28 -27.68 28 -27 28 C-27 27.01 -27 26.02 -27 25 C-26.071875 24.87625 -26.071875 24.87625 -25.125 24.75 C-22.89696204 24.21402521 -22.89696204 24.21402521 -22 22.375 C-21.67 21.59125 -21.34 20.8075 -21 20 C-20.30408785 18.7430424 -19.59486134 17.49339686 -18.875 16.25 C-18.25625 15.1775 -17.6375 14.105 -17 13 C-16.01 13 -15.02 13 -14 13 C-13.67 12.01 -13.34 11.02 -13 10 C-10.9375 9.3125 -10.9375 9.3125 -9 9 C-8.87818359 8.09507813 -8.87818359 8.09507813 -8.75390625 7.171875 C-7.76334726 4.31824391 -6.52557989 3.72890279 -3.9375 2.25 C-2.83728516 1.60804687 -2.83728516 1.60804687 -1.71484375 0.953125 C-1.14894531 0.63859375 -0.58304687 0.3240625 0 0 Z " fill="#3B3AA4" transform="translate(146,43)"/>
<path d="M0 0 C0.99 0.33 1.98 0.66 3 1 C4 3.33333333 5 5.66666667 6 8 C6.99 8.33 7.98 8.66 9 9 C9.69937532 10.31647119 10.36729133 11.65022151 11 13 C11.66 13.33 12.32 13.66 13 14 C13 12.35 13 10.7 13 9 C14.65 9.33 16.3 9.66 18 10 C22.69967973 25.36685976 22.69967973 25.36685976 23 33 C23.07734375 34.55074219 23.07734375 34.55074219 23.15625 36.1328125 C23.56260097 51.26938603 20.43048513 64.3542723 12 77 C11.34 77 10.68 77 10 77 C9.67 77.99 9.34 78.98 9 80 C8 77 8 77 8.875 74.875 C10.19123106 71.51129841 10.46359829 68.46911495 10.75390625 64.890625 C11 63 11 63 12 62 C12.23427778 59.98405418 12.41336124 57.961526 12.5625 55.9375 C12.64628906 54.83277344 12.73007813 53.72804687 12.81640625 52.58984375 C12.87699219 51.73519531 12.93757812 50.88054687 13 50 C13.33 50 13.66 50 14 50 C14.33 52.64 14.66 55.28 15 58 C15.02721831 54.9999376 15.04694378 52.00012744 15.0625 49 C15.07087891 48.16082031 15.07925781 47.32164062 15.08789062 46.45703125 C15.10824033 41.20680661 14.76368207 36.19544338 14 31 C13.34 31 12.68 31 12 31 C11.77957031 30.05640625 11.77957031 30.05640625 11.5546875 29.09375 C9.6044517 21.65147086 6.3077651 16.80894163 1.32421875 11.0703125 C-0.26993735 8.57797406 -0.31657771 7.17576137 -0.1875 4.25 C-0.16042969 3.45078125 -0.13335937 2.6515625 -0.10546875 1.828125 C-0.07066406 1.22484375 -0.03585938 0.6215625 0 0 Z " fill="#C02E72" transform="translate(129,103)"/>
<path d="M0 0 C5.93002267 -0.37851209 10.47239641 0.89424625 16 3 C16 3.66 16 4.32 16 5 C17.051875 5.061875 18.10375 5.12375 19.1875 5.1875 C25.32778714 6.49608578 27.71004764 10.34380058 31 15.375 C35.28753349 22.76155381 39.55924132 32.36465603 39 41 C36.02804915 39.66700749 33.98538946 38.21692854 31.72265625 35.8828125 C30.82836914 34.97208984 30.82836914 34.97208984 29.91601562 34.04296875 C29.30435547 33.41003906 28.69269531 32.77710938 28.0625 32.125 C24.19211194 28.14379489 20.35191676 24.46103525 16 21 C14.98812105 19.34051852 13.9873454 17.67419438 13 16 C10.76459594 13.99584464 8.7429756 12.88219715 6 11.625 C2.63054509 9.79987859 0.95748026 8.28856684 -1 5 C-0.75 2.1875 -0.75 2.1875 0 0 Z " fill="#90398B" transform="translate(144,75)"/>
<path d="M0 0 C4.29 0 8.58 0 13 0 C13 0.66 13 1.32 13 2 C11.68 2 10.36 2 9 2 C8.855625 3.093125 8.71125 4.18625 8.5625 5.3125 C8 9 8 9 7 12 C7.79299055 15.11532002 8.70763253 18.14726154 9.75 21.1875 C10.08723805 23.63247589 9.14679237 24.86961264 8 27 C5.72858891 26.88597936 3.45785448 26.75841495 1.1875 26.625 C-0.07707031 26.55539063 -1.34164062 26.48578125 -2.64453125 26.4140625 C-6 26 -6 26 -9 24 C-7.68 24 -6.36 24 -5 24 C-4.34 21.36 -3.68 18.72 -3 16 C-8.28 16.33 -13.56 16.66 -19 17 C-19.33 15.68 -19.66 14.36 -20 13 C-16.51778031 10.02987144 -13.11886913 7.97362479 -9 6 C-8.113125 5.443125 -7.22625 4.88625 -6.3125 4.3125 C-4 3 -4 3 -1 3 C-0.67 2.01 -0.34 1.02 0 0 Z " fill="#EB805B" transform="translate(179,26)"/>
<path d="M0 0 C-0.51949219 0.30292969 -1.03898437 0.60585938 -1.57421875 0.91796875 C-5.97946044 3.56437087 -9.39651772 6.30412074 -13 10 C-15.28369136 11.75114989 -17.62575655 13.37061724 -20 15 C-20.495 13.515 -20.495 13.515 -21 12 C-22.31878578 12.76002917 -23.6298684 13.53343653 -24.9375 14.3125 C-25.66839844 14.74175781 -26.39929688 15.17101562 -27.15234375 15.61328125 C-29.29977412 16.95110254 -29.29977412 16.95110254 -30 20 C-31.31647119 20.69937532 -32.65022151 21.36729133 -34 22 C-34.33 22.66 -34.66 23.32 -35 24 C-35.99 24 -36.98 24 -38 24 C-38.11730469 24.58394531 -38.23460937 25.16789062 -38.35546875 25.76953125 C-39.0353008 28.12216216 -39.91202729 29.68868291 -41.3125 31.6875 C-41.72113281 32.28949219 -42.12976563 32.89148438 -42.55078125 33.51171875 C-44.2913441 35.29919704 -45.57064587 35.61151053 -48 36 C-48 36.99 -48 37.98 -48 39 C-48.99 39.495 -48.99 39.495 -50 40 C-51.04808041 41.97522846 -52.0520411 43.97481509 -53 46 C-54.32 45.67 -55.64 45.34 -57 45 C-56.22179801 30.99236425 -47.32368377 21.807123 -37.5078125 12.68359375 C-35.69655907 11.08827267 -33.87194626 9.52330297 -32 8 C-31.34 8.33 -30.68 8.66 -30 9 C-30.66 9.66 -31.32 10.32 -32 11 C-32.39764263 12.98821313 -32.73775349 14.98944339 -33 17 C-32.4740625 16.3503125 -32.4740625 16.3503125 -31.9375 15.6875 C-30 14 -30 14 -26.78515625 12.7109375 C-22.16953736 10.79129355 -18.68508221 7.77966785 -14.89453125 4.58398438 C-10.36515406 0.91551786 -5.82028755 -1.94009585 0 0 Z " fill="#812CC0" transform="translate(167,32)"/>
<path d="M0 0 C1.68996094 0.00966797 1.68996094 0.00966797 3.4140625 0.01953125 C6.375 0.1875 6.375 0.1875 9.375 1.1875 C9.375 1.8475 9.375 2.5075 9.375 3.1875 C9.95507812 3.36925781 10.53515625 3.55101563 11.1328125 3.73828125 C15.76647293 5.2293106 20.07262355 6.87083576 24.375 9.1875 C20.09518209 13.84494891 16.47586614 16.83645855 10.0625 17.5625 C5.54086834 17.10267305 1.48409001 16.16318368 -2.625 14.1875 C-3.66147024 12.88231525 -4.66922943 11.55288653 -5.625 10.1875 C-9.23304584 9.21032092 -11.0564543 8.99798477 -14.625 10.1875 C-14.625 9.5275 -14.625 8.8675 -14.625 8.1875 C-15.285 7.8575 -15.945 7.5275 -16.625 7.1875 C-11.37920225 1.49206244 -7.72270775 -0.09764343 0 0 Z " fill="#C4414F" transform="translate(70.625,74.8125)"/>
<path d="M0 0 C1.33333333 1.33333333 2.66666667 2.66666667 4 4 C4.53786133 4.44601563 5.07572266 4.89203125 5.62988281 5.3515625 C7.45897802 7.55221304 7.28949759 8.73944652 7.109375 11.5625 C7.05910156 12.44164063 7.00882813 13.32078125 6.95703125 14.2265625 C6.88871094 15.14179687 6.82039063 16.05703125 6.75 17 C6.69714844 17.91523437 6.64429687 18.83046875 6.58984375 19.7734375 C6.36049213 23.41106087 6.15799521 26.52601437 5 30 C3.125 29.875 3.125 29.875 1 29 C-0.25 25.9375 -0.25 25.9375 -1 23 C-3.17038477 23.79299706 -3.17038477 23.79299706 -3.6328125 25.84765625 C-3.79523438 26.57855469 -3.95765625 27.30945313 -4.125 28.0625 C-4.29257813 28.79597656 -4.46015625 29.52945313 -4.6328125 30.28515625 C-4.75398438 30.85105469 -4.87515625 31.41695312 -5 32 C-5.66 32 -6.32 32 -7 32 C-7.33 32.66 -7.66 33.32 -8 34 C-8.45504384 32.42484823 -8.90701271 30.84877197 -9.34765625 29.26953125 C-9.82965839 27.59262559 -10.3421609 25.92441797 -10.87109375 24.26171875 C-11.16113281 23.30910156 -11.45117188 22.35648438 -11.75 21.375 C-12.03359375 20.47523437 -12.3171875 19.57546875 -12.609375 18.6484375 C-13.08624353 15.41526888 -12.51805787 13.86317243 -11 11 C-9.37446717 9.29319053 -7.70884005 7.62339805 -6 6 C-5.34 5.01 -4.68 4.02 -4 3 C-3.34 3 -2.68 3 -2 3 C-2 2.34 -2 1.68 -2 1 C-1.34 0.67 -0.68 0.34 0 0 Z " fill="#08559D" transform="translate(121,89)"/>
<path d="M0 0 C5.50537709 5.19078411 10.16276513 10.48403917 12 18 C12 19.32 12 20.64 12 22 C12.66 22 13.32 22 14 22 C16.00060017 28.61615806 16.24246007 34.61503266 16.125 41.5 C16.11597656 42.51320312 16.10695312 43.52640625 16.09765625 44.5703125 C16.07429007 47.04712801 16.04153168 49.52343379 16 52 C13.32072659 47.98108988 13.84398752 45.75838077 14 41 C13.34 41 12.68 41 12 41 C11.60167969 40.16855469 11.20335937 39.33710938 10.79296875 38.48046875 C9.99826172 36.85044922 9.99826172 36.85044922 9.1875 35.1875 C8.66542969 34.10855469 8.14335937 33.02960938 7.60546875 31.91796875 C6.19943315 29.04159717 6.19943315 29.04159717 4.30078125 27.30078125 C3.87152344 26.87152344 3.44226563 26.44226563 3 26 C3 25.01 3 24.02 3 23 C0.525 22.01 0.525 22.01 -2 21 C-2 20.01 -2 19.02 -2 18 C-2.99 17.67 -3.98 17.34 -5 17 C-4 15 -4 15 0 13 C0 8.71 0 4.42 0 0 Z " fill="#9A0741" transform="translate(129,112)"/>
<path d="M0 0 C3.10656588 0.50572003 4.0739134 1.53847491 6.12109375 3.8359375 C8.06610965 5.82460712 10.21365066 7.39203512 12.4375 9.0625 C17.96569637 13.42686555 22.9248405 18.4501318 26.6875 24.4375 C26.1925 25.9225 26.1925 25.9225 25.6875 27.4375 C24.69492188 27.05078125 23.70234375 26.6640625 22.6796875 26.265625 C14.72134729 23.20290566 6.82735876 20.48388116 -1.421875 18.296875 C-3.94080523 17.54800385 -5.98246735 16.61206564 -8.3125 15.4375 C-9.88408878 15.01598115 -11.46879082 14.6406166 -13.0625 14.3125 C-14.26132813 14.06113281 -14.26132813 14.06113281 -15.484375 13.8046875 C-16.08765625 13.68351562 -16.6909375 13.56234375 -17.3125 13.4375 C-16 11.9375 -16 11.9375 -14.3125 10.4375 C-13.3225 10.4375 -12.3325 10.4375 -11.3125 10.4375 C-10.6525 11.0975 -9.9925 11.7575 -9.3125 12.4375 C-6.74188689 13.08517793 -6.74188689 13.08517793 -4.3125 13.4375 C-4.3125 12.4475 -4.3125 11.4575 -4.3125 10.4375 C-3.384375 10.788125 -2.45625 11.13875 -1.5 11.5 C1.6677953 12.76132628 1.6677953 12.76132628 4.6875 11.4375 C4.0275 10.4475 3.3675 9.4575 2.6875 8.4375 C2.6875 7.4475 2.6875 6.4575 2.6875 5.4375 C0.3775 4.4475 -1.9325 3.4575 -4.3125 2.4375 C-2.3125 0.4375 -2.3125 0.4375 0 0 Z " fill="#DD639C" transform="translate(190.3125,53.5625)"/>
<path d="M0 0 C0 0.66 0 1.32 0 2 C-1.155 2.556875 -2.31 3.11375 -3.5 3.6875 C-7.24343578 5.54924426 -10.74313792 7.65929726 -14.23828125 9.94921875 C-16 11 -16 11 -19 12 C-18.67 13.32 -18.34 14.64 -18 16 C-12.72 15.34 -7.44 14.68 -2 14 C-1.67 14.66 -1.34 15.32 -1 16 C-1.77734375 17.9453125 -1.77734375 17.9453125 -2.9375 20.125 C-3.31777344 20.84945312 -3.69804687 21.57390625 -4.08984375 22.3203125 C-4.39019531 22.87460937 -4.69054687 23.42890625 -5 24 C-4.00097656 24.12117188 -3.00195312 24.24234375 -1.97265625 24.3671875 C-0.68230469 24.53476562 0.60804688 24.70234375 1.9375 24.875 C3.86916016 25.11863281 3.86916016 25.11863281 5.83984375 25.3671875 C6.88269531 25.57601562 7.92554688 25.78484375 9 26 C9.495 26.99 9.495 26.99 10 28 C3.11096305 28.96749588 -2.32183656 29.38560515 -8.828125 26.76171875 C-11.90198931 25.68365483 -14.9168666 25.49690194 -18.15234375 25.30859375 C-20 25 -20 25 -22 23 C-22 22.01 -22 21.02 -22 20 C-23.65 19.67 -25.3 19.34 -27 19 C-22.30105322 11.10576941 -15.04994459 5.3663127 -7 1 C-4.58668637 0.3913324 -2.48461517 0 0 0 Z " fill="#DE4D67" transform="translate(178,27)"/>
<path d="M0 0 C2.31 0.66 4.62 1.32 7 2 C7.12117188 2.65226562 7.24234375 3.30453125 7.3671875 3.9765625 C8.28943989 8.78646342 9.30167277 13.39025465 11 18 C9.68 17.67 8.36 17.34 7 17 C7 18.65 7 20.3 7 22 C6.01 21.67 5.02 21.34 4 21 C3.3125 18.9375 3.3125 18.9375 3 17 C1.68 16.67 0.36 16.34 -1 16 C-1.66 13.69 -2.32 11.38 -3 9 C-3.66 9 -4.32 9 -5 9 C-5.99 15.6 -6.98 22.2 -8 29 C-8.99 29 -9.98 29 -11 29 C-11.33 27.02 -11.66 25.04 -12 23 C-11.01 23.33 -10.02 23.66 -9 24 C-8.98018066 23.40985107 -8.96036133 22.81970215 -8.93994141 22.21166992 C-8.84465341 19.53649904 -8.73499061 16.86210502 -8.625 14.1875 C-8.5940625 13.25873047 -8.563125 12.32996094 -8.53125 11.37304688 C-8.49257812 10.48037109 -8.45390625 9.58769531 -8.4140625 8.66796875 C-8.3826416 7.84578857 -8.3512207 7.0236084 -8.31884766 6.17651367 C-8 4 -8 4 -6 1 C-3.4375 0.875 -3.4375 0.875 -1 1 C-0.67 0.67 -0.34 0.34 0 0 Z " fill="#622B9F" transform="translate(135,95)"/>
<path d="M0 0 C0 0.66 0 1.32 0 2 C-0.72960937 2.15855469 -1.45921875 2.31710938 -2.2109375 2.48046875 C-8.97959831 3.99297197 -15.68597069 5.66925287 -22.375 7.5 C-23.12313965 7.70133545 -23.8712793 7.9026709 -24.64208984 8.11010742 C-28.16593351 9.08773287 -31.50993031 10.16329215 -34.8515625 11.65625 C-38 13 -38 13 -41 13 C-41 12.34 -41 11.68 -41 11 C-39.68 10.34 -38.36 9.68 -37 9 C-37 8.34 -37 7.68 -37 7 C-38.65 6.67 -40.3 6.34 -42 6 C-30.73847575 -1.50768284 -12.99974603 -2.9889927 0 0 Z " fill="#A92DBD" transform="translate(202,19)"/>
<path d="M0 0 C0.99 0 1.98 0 3 0 C3.66 0.99 4.32 1.98 5 3 C5.66 3 6.32 3 7 3 C14.41058394 20.22536496 14.41058394 20.22536496 14 27 C11.02521588 25.66081927 8.92471949 24.18092874 6.6171875 21.8828125 C6.00746094 21.27566406 5.39773437 20.66851562 4.76953125 20.04296875 C4.14433594 19.41003906 3.51914063 18.77710937 2.875 18.125 C2.24207031 17.49980469 1.60914063 16.87460938 0.95703125 16.23046875 C0.04630859 15.31587891 0.04630859 15.31587891 -0.8828125 14.3828125 C-1.43340332 13.82996582 -1.98399414 13.27711914 -2.55126953 12.70751953 C-4.07881282 10.90710872 -5.03375725 9.14635972 -6 7 C-4.68 6.67 -3.36 6.34 -2 6 C-2 5.01 -2 4.02 -2 3 C-1.34 2.01 -0.68 1.02 0 0 Z " fill="#B857A3" transform="translate(169,89)"/>
<path d="M0 0 C3 1 3 1 4.1796875 3.16796875 C5.10285514 6.35509512 5.19779145 9.00048884 5.125 12.3125 C5.10695313 13.38113281 5.08890625 14.44976562 5.0703125 15.55078125 C5.04710938 16.35902344 5.02390625 17.16726562 5 18 C-0.09832122 18.37649141 -3.82625254 17.10818776 -8.375 15 C-9.01566406 14.71382812 -9.65632813 14.42765625 -10.31640625 14.1328125 C-11.88207163 13.4317683 -13.44169156 12.71724882 -15 12 C-15 10.68 -15 9.36 -15 8 C-13.906875 7.896875 -12.81375 7.79375 -11.6875 7.6875 C-7.93600108 6.988068 -7.30164205 6.74005005 -5 4 C-3.66666667 3.33333333 -2.33333333 2.66666667 -1 2 C-0.67 1.34 -0.34 0.68 0 0 Z " fill="#A81049" transform="translate(106,106)"/>
<path d="M0 0 C0 1.98 0 3.96 0 6 C0.66 6.33 1.32 6.66 2 7 C-3.05270752 10.29972736 -5.833611 11.34257717 -12 11 C-12.86625 11.268125 -13.7325 11.53625 -14.625 11.8125 C-17 12 -17 12 -19.8125 9.8125 C-22 7 -22 7 -22 3 C-18.37 3 -14.74 3 -11 3 C-11 2.34 -11 1.68 -11 1 C-6.87831311 -0.62950412 -4.29299643 -1.26264601 0 0 Z " fill="#1D4097" transform="translate(96,91)"/>
<path d="M0 0 C0.33 0 0.66 0 1 0 C1.72401934 15.90160997 -1.10661543 29.65992315 -10 43 C-10.66 43 -11.32 43 -12 43 C-12.33 43.99 -12.66 44.98 -13 46 C-14 43 -14 43 -13.125 40.875 C-11.80876894 37.51129841 -11.53640171 34.46911495 -11.24609375 30.890625 C-11 29 -11 29 -10 28 C-9.76572222 25.98405418 -9.58663876 23.961526 -9.4375 21.9375 C-9.35371094 20.83277344 -9.26992187 19.72804687 -9.18359375 18.58984375 C-9.12300781 17.73519531 -9.06242188 16.88054687 -9 16 C-8.67 16 -8.34 16 -8 16 C-7.67 18.64 -7.34 21.28 -7 24 C-6.67 20.37 -6.34 16.74 -6 13 C-4.35 12.34 -2.7 11.68 -1 11 C-0.67 7.37 -0.34 3.74 0 0 Z " fill="#C03C75" transform="translate(151,137)"/>
<path d="M0 0 C2.90501199 4.35751798 2.84955116 8.81125921 3.4375 13.9453125 C3.623125 14.95335937 3.80875 15.96140625 4 17 C4.66 17.33 5.32 17.66 6 18 C5.34 22.95 4.68 27.9 4 33 C3.34 32.34 2.68 31.68 2 31 C1.01 31 0.02 31 -1 31 C-1.66 25.72 -2.32 20.44 -3 15 C-3.66 15 -4.32 15 -5 15 C-5.66 12.36 -6.32 9.72 -7 7 C-6.21625 6.87625 -5.4325 6.7525 -4.625 6.625 C-1.85942178 6.20882007 -1.85942178 6.20882007 0 4 C0 2.68 0 1.36 0 0 Z " fill="#C62166" transform="translate(146,119)"/>
<path d="M0 0 C1.25541557 3.76624671 0.37061958 5.37188934 -1 9 C-1.66 9 -2.32 9 -3 9 C-2.74863281 9.88171875 -2.49726563 10.7634375 -2.23828125 11.671875 C-2 15 -2 15 -3.73046875 17.703125 C-4.54128906 18.54359375 -5.35210937 19.3840625 -6.1875 20.25 C-6.98542969 21.10078125 -7.78335938 21.9515625 -8.60546875 22.828125 C-10.71236046 24.73910671 -12.39566816 25.92234545 -15 27 C-14.34092213 22.62005213 -12.7425251 18.82040956 -10.9375 14.8125 C-8.82193244 10.56771552 -8.82193244 10.56771552 -8 6 C-8.66 6 -9.32 6 -10 6 C-10.33 5.01 -10.66 4.02 -11 3 C-7.48550811 -0.37391222 -4.73940561 -0.27342725 0 0 Z " fill="#2078B0" transform="translate(140,157)"/>
<path d="M0 0 C2.66881371 2.03761809 3.94360798 3.91043945 5.4609375 6.87890625 C4.4709375 7.37390625 4.4709375 7.37390625 3.4609375 7.87890625 C3.23535156 7.28078125 3.00976562 6.68265625 2.77734375 6.06640625 C0.16546922 1.72619932 -5.13416812 0.07548025 -9.5390625 -2.12109375 C-10.29960938 -2.54132812 -11.06015625 -2.9615625 -11.84375 -3.39453125 C-17.96517978 -6.55614883 -23.73397862 -6.90741585 -30.5390625 -6.12109375 C-34.57519125 -4.82376665 -36.09920925 -3.63227456 -38.8515625 -0.43359375 C-40.8807829 3.54969073 -41.2333906 6.44666365 -41.5390625 10.87890625 C-42.1990625 10.87890625 -42.8590625 10.87890625 -43.5390625 10.87890625 C-44.54760502 13.77006148 -45.47834817 16.55256675 -46.0390625 19.56640625 C-46.5390625 21.87890625 -46.5390625 21.87890625 -48.5390625 24.87890625 C-49.5290625 24.54890625 -50.5190625 24.21890625 -51.5390625 23.87890625 C-52.0575666 18.43461324 -50.54405233 16.30336542 -47.5390625 11.87890625 C-46.40788701 9.55854626 -45.30424025 7.22459147 -44.2265625 4.87890625 C-41.48462271 -0.83290782 -38.86925169 -4.60115749 -33.5390625 -8.12109375 C-21.72491926 -11.72463551 -10.08603188 -5.82718464 0 0 Z " fill="#DDA780" transform="translate(101.5390625,64.12109375)"/>
<path d="M0 0 C2 2 2 2 2 6 C2.99 6.33 3.98 6.66 5 7 C5.05807043 10.10408807 5.09361914 13.2080364 5.125 16.3125 C5.15013672 17.63411133 5.15013672 17.63411133 5.17578125 18.98242188 C5.18222656 19.82998047 5.18867188 20.67753906 5.1953125 21.55078125 C5.20578613 22.33106689 5.21625977 23.11135254 5.22705078 23.9152832 C5 26 5 26 3 29 C1.62204729 26.65717886 0.27356748 24.30405692 -1.0625 21.9375 C-1.45244141 21.28072266 -1.84238281 20.62394531 -2.24414062 19.94726562 C-4.83187108 15.29851092 -5.51677004 12.33930262 -4 7 C-3.34 6.67 -2.68 6.34 -2 6 C-1.27306096 4.02111039 -0.60183749 2.02045442 0 0 Z " fill="#7F327D" transform="translate(153,97)"/>
<path d="M0 0 C0.33 0.99 0.66 1.98 1 3 C1.66 3.66 2.32 4.32 3 5 C2.50628906 5.37511719 2.01257813 5.75023437 1.50390625 6.13671875 C-2.56118792 9.27538249 -2.56118792 9.27538249 -4.9375 13.6875 C-4.9853462 15.45780943 -5 17.22904412 -5 19 C-1.30749776 21.79735018 2.57265213 22.81410325 7 24 C8.67632417 24.64199649 10.34750513 25.29894157 12 26 C12 26.66 12 27.32 12 28 C13.65 28 15.3 28 17 28 C17 28.66 17 29.32 17 30 C17.66 30.33 18.32 30.66 19 31 C17.68 31 16.36 31 15 31 C15 30.34 15 29.68 15 29 C14.030625 28.896875 13.06125 28.79375 12.0625 28.6875 C7.50619122 28.0418692 3.32133723 26.53542019 -1 25 C-2.5778125 24.4740625 -2.5778125 24.4740625 -4.1875 23.9375 C-7.125 22.95833333 -10.0625 21.97916667 -13 21 C-12.37273825 17.40975181 -10.87431523 15.11997863 -8.75 12.1875 C-7.81220703 10.88232422 -7.81220703 10.88232422 -6.85546875 9.55078125 C-5.93701172 8.28814453 -5.93701172 8.28814453 -5 7 C-4.01978215 5.62574917 -3.04045493 4.2508621 -2.0625 2.875 C-1.381875 1.92625 -0.70125 0.9775 0 0 Z " fill="#9B206D" transform="translate(145,49)"/>
<path d="M0 0 C0.66 0.33 1.32 0.66 2 1 C1.67 2.65 1.34 4.3 1 6 C1.66 6.33 2.32 6.66 3 7 C2.34 7 1.68 7 1 7 C1.33 7.99 1.66 8.98 2 10 C-13.4516129 23 -13.4516129 23 -19 23 C-17.38049597 19.31453408 -15.0945887 16.42667806 -12.5625 13.3125 C-11.78003906 12.33925781 -10.99757813 11.36601562 -10.19140625 10.36328125 C-8 8 -8 8 -5 7 C-3.56051882 5.37117603 -3.56051882 5.37117603 -2.3125 3.4375 C-1.87550781 2.79683594 -1.43851563 2.15617188 -0.98828125 1.49609375 C-0.66214844 1.00238281 -0.33601563 0.50867188 0 0 Z " fill="#1670AB" transform="translate(126,156)"/>
<path d="M0 0 C0.99 0.66 1.98 1.32 3 2 C2.27683594 2.56267578 2.27683594 2.56267578 1.5390625 3.13671875 C-2.12850346 6.10819566 -4.74618833 8.26337814 -6 13 C-5.2575 12.649375 -4.515 12.29875 -3.75 11.9375 C-0.8677274 10.95490707 0.21176345 10.9673198 3 12 C-0.44615385 16.8 -0.44615385 16.8 -3.25 17.8125 C-4.11625 17.9053125 -4.11625 17.9053125 -5 18 C-5 18.99 -5 19.98 -5 21 C-5.66 21.33 -6.32 21.66 -7 22 C-8.04808041 23.97522846 -9.0520411 25.97481509 -10 28 C-11.32 27.67 -12.64 27.34 -14 27 C-13.36860134 15.63482414 -7.76539894 7.97735772 0 0 Z " fill="#6932B8" transform="translate(124,50)"/>
<path d="M0 0 C7.29169561 0.38377345 13.02136355 2.31922719 18.5 7.25 C18.995 7.8275 19.49 8.405 20 9 C19 10 19 10 15.18359375 10.09765625 C13.60153318 10.09098089 12.01948841 10.07901875 10.4375 10.0625 C9.63119141 10.05798828 8.82488281 10.05347656 7.99414062 10.04882812 C5.99606244 10.03700518 3.99802217 10.01906914 2 10 C1.67 8.35 1.34 6.7 1 5 C-0.32 5.33 -1.64 5.66 -3 6 C-3.33 5.34 -3.66 4.68 -4 4 C-2.66666667 2.66666667 -1.33333333 1.33333333 0 0 Z " fill="#F5BD53" transform="translate(198,29)"/>
<path d="M0 0 C0.99 0 1.98 0 3 0 C4.86044654 2.36270766 6.50031901 4.6708832 8.125 7.1875 C8.58003906 7.86103516 9.03507813 8.53457031 9.50390625 9.22851562 C11.8354091 12.77419874 13.58022493 15.67631673 14 20 C9.99541169 19.38390949 7.16980331 17.44939347 4 15 C4 14.01 4 13.02 4 12 C3.05125 11.731875 2.1025 11.46375 1.125 11.1875 C-2 10 -2 10 -4 7 C-2.68 4.69 -1.36 2.38 0 0 Z " fill="#DF4383" transform="translate(192,80)"/>
<path d="M0 0 C0.66 0.66 1.32 1.32 2 2 C1.625 4.125 1.625 4.125 1 6 C0.34 6 -0.32 6 -1 6 C-1.20625 6.680625 -1.4125 7.36125 -1.625 8.0625 C-3.1717726 11.36696874 -5.12096157 13.58985838 -7.5390625 16.28515625 C-9.31431867 18.36894625 -10.63690451 20.63251836 -12 23 C-12.33 23 -12.66 23 -13 23 C-13 20.36 -13 17.72 -13 15 C-14.32 15.33 -15.64 15.66 -17 16 C-17 15.01 -17 14.02 -17 13 C-16.01 13 -15.02 13 -14 13 C-13.67 12.01 -13.34 11.02 -13 10 C-10.9375 9.3125 -10.9375 9.3125 -9 9 C-8.91878906 8.39671875 -8.83757812 7.7934375 -8.75390625 7.171875 C-7.76334726 4.31824391 -6.52557989 3.72890279 -3.9375 2.25 C-3.20402344 1.82203125 -2.47054687 1.3940625 -1.71484375 0.953125 C-1.14894531 0.63859375 -0.58304688 0.3240625 0 0 Z " fill="#5F26A3" transform="translate(146,43)"/>
<path d="M0 0 C0.556875 0.309375 1.11375 0.61875 1.6875 0.9375 C4.12540433 2.05761821 6.36224186 2.56037364 9 3 C8.67 3.99 8.34 4.98 8 6 C8.99 6.33 9.98 6.66 11 7 C10.34 8.32 9.68 9.64 9 11 C10.91750286 10.91256669 12.83406665 10.8043811 14.75 10.6875 C16.35101563 10.60048828 16.35101563 10.60048828 17.984375 10.51171875 C21.24789442 9.95793501 22.45467247 8.99455288 25 7 C26.32 7 27.64 7 29 7 C29 6.34 29 5.68 29 5 C29.99 5.33 30.98 5.66 32 6 C31.34 6 30.68 6 30 6 C29.67 6.99 29.34 7.98 29 9 C27 9.66666667 25 10.33333333 23 11 C22.67 11.99 22.34 12.98 22 14 C20.88625 14.12375 19.7725 14.2475 18.625 14.375 C14.96896323 14.6465813 14.96896323 14.6465813 13 17 C7.28228556 12.9016818 2.54660875 9.14745518 -1 3 C-0.67 2.01 -0.34 1.02 0 0 Z " fill="#242466" transform="translate(76,100)"/>
<path d="M0 0 C0.33 0.66 0.66 1.32 1 2 C1.99 1.67 2.98 1.34 4 1 C4 2.32 4 3.64 4 5 C4.66 5.33 5.32 5.66 6 6 C5.01 6.33 4.02 6.66 3 7 C3 7.99 3 8.98 3 10 C0.62854106 10.84479453 -1.74634124 11.67593283 -4.125 12.5 C-4.79015625 12.73847656 -5.4553125 12.97695312 -6.140625 13.22265625 C-10.23354055 14.62708806 -13.61131792 15.27343814 -18 15 C-15.4812391 12.98228294 -12.95987186 10.96822681 -10.4296875 8.96484375 C-9.58664063 8.29582031 -8.74359375 7.62679687 -7.875 6.9375 C-7.02679688 6.26589844 -6.17859375 5.59429687 -5.3046875 4.90234375 C-3.41748967 3.34460588 -1.68603584 1.76868466 0 0 Z " fill="#1870B3" transform="translate(112,151)"/>
<path d="M0 0 C2.66666667 1.33333333 5.33333333 2.66666667 8 4 C8 4.66 8 5.32 8 6 C8.721875 6.20625 9.44375 6.4125 10.1875 6.625 C13.9255306 8.45248163 15.49246917 10.70438806 18 14 C14.22930529 15.25689824 12.22169112 14.58733573 8.375 13.6875 C7.20710937 13.42324219 6.03921875 13.15898438 4.8359375 12.88671875 C3.90007812 12.59410156 2.96421875 12.30148438 2 12 C1.67 11.34 1.34 10.68 1 10 C1.33 9.34 1.66 8.68 2 8 C1.01 7.67 0.02 7.34 -1 7 C-0.835 6.21625 -0.67 5.4325 -0.5 4.625 C0.0623707 2.11791961 0.0623707 2.11791961 0 0 Z " fill="#F4AF57" transform="translate(195,43)"/>
<path d="M0 0 C1.12664062 -0.00515625 2.25328125 -0.0103125 3.4140625 -0.015625 C6.375 0.25 6.375 0.25 9.375 2.25 C8.30958984 2.43175781 8.30958984 2.43175781 7.22265625 2.6171875 C6.30355469 2.78476563 5.38445312 2.95234375 4.4375 3.125 C3.52097656 3.28742188 2.60445312 3.44984375 1.66015625 3.6171875 C0.90605469 3.82601562 0.15195313 4.03484375 -0.625 4.25 C-0.955 4.91 -1.285 5.57 -1.625 6.25 C-2.285 6.25 -2.945 6.25 -3.625 6.25 C-3.955 6.91 -4.285 7.57 -4.625 8.25 C-7.85473469 9.32657823 -11.26950899 9.71617188 -14.625 10.25 C-14.625 9.59 -14.625 8.93 -14.625 8.25 C-15.285 7.92 -15.945 7.59 -16.625 7.25 C-11.3946464 1.57133038 -7.70168475 -0.03541004 0 0 Z " fill="#CF5B4C" transform="translate(70.625,74.75)"/>
<path d="M0 0 C0.99 0 1.98 0 3 0 C3.66 0.99 4.32 1.98 5 3 C5.66 3 6.32 3 7 3 C7.625 4.875 7.625 4.875 8 7 C6 9 6 9 4 10 C3.01 11.485 3.01 11.485 2 13 C2.99 13.66 3.98 14.32 5 15 C5 15.66 5 16.32 5 17 C5.66 17.33 6.32 17.66 7 18 C6.01 18.33 5.02 18.66 4 19 C2.70212134 17.75645114 1.41193241 16.5048736 0.125 15.25 C-0.59429687 14.55390625 -1.31359375 13.8578125 -2.0546875 13.140625 C-3.86479679 11.14877783 -4.94848086 9.4572342 -6 7 C-4.68 6.67 -3.36 6.34 -2 6 C-2 5.01 -2 4.02 -2 3 C-1.34 2.01 -0.68 1.02 0 0 Z " fill="#A84F95" transform="translate(169,89)"/>
<path d="M0 0 C3.11198065 1.49836105 6.0534615 3.19933758 9 5 C8.74821616 9.28032524 8.47140149 11.4541667 5.625 14.75 C4.75875 15.4925 3.8925 16.235 3 17 C2.525625 17.61875 2.05125 18.2375 1.5625 18.875 C0 20 0 20 -3.125 19.8125 C-4.07375 19.544375 -5.0225 19.27625 -6 19 C-6.33 18.34 -6.66 17.68 -7 17 C-6.236875 16.87625 -5.47375 16.7525 -4.6875 16.625 C-1.79732864 16.11897208 -1.79732864 16.11897208 1 14 C1.65298872 12.14451726 1.65298872 12.14451726 1.8125 10.0625 C1.90144531 9.37285156 1.99039063 8.68320313 2.08203125 7.97265625 C2.15756236 5.67338831 2.15756236 5.67338831 0 3 C0 2.01 0 1.02 0 0 Z " fill="#E98D61" transform="translate(96,64)"/>
<path d="M0 0 C4.01182676 1.55861775 6.11384411 4.15464397 8.8125 7.4375 C9.62332031 8.40558594 10.43414062 9.37367187 11.26953125 10.37109375 C12.12611328 11.67240234 12.12611328 11.67240234 13 13 C12.67 13.99 12.34 14.98 12 16 C10.37061226 15.40776866 8.74658872 14.80076372 7.125 14.1875 C6.22007812 13.85105469 5.31515625 13.51460937 4.3828125 13.16796875 C2 12 2 12 0 9 C-0.99 8.34 -1.98 7.68 -3 7 C-2.625 5.0625 -2.625 5.0625 -2 3 C-1.34 2.67 -0.68 2.34 0 2 C0 1.34 0 0.68 0 0 Z " fill="#E871A9" transform="translate(204,65)"/>
<path d="M0 0 C0.66 0 1.32 0 2 0 C2.33 0.99 2.66 1.98 3 3 C5.00016466 4.20882096 5.00016466 4.20882096 7 5 C7.33 4.01 7.66 3.02 8 2 C9.65 2.33 11.3 2.66 13 3 C13.33 5.64 13.66 8.28 14 11 C13.34 9.68 12.68 8.36 12 7 C9.82961523 7.79299706 9.82961523 7.79299706 9.3671875 9.84765625 C9.20476562 10.57855469 9.04234375 11.30945313 8.875 12.0625 C8.62363281 13.16271484 8.62363281 13.16271484 8.3671875 14.28515625 C8.24601562 14.85105469 8.12484375 15.41695312 8 16 C7.34 16 6.68 16 6 16 C5.67 16.66 5.34 17.32 5 18 C3.27147357 12.01663928 1.63040815 6.01077136 0 0 Z " fill="#4C6A9A" transform="translate(108,105)"/>
<path d="M0 0 C5.93002267 -0.37851209 10.47239641 0.89424625 16 3 C15.38382813 3.30164063 14.76765625 3.60328125 14.1328125 3.9140625 C10.04039453 5.99774784 7.93352515 7.84206539 6 12 C3.43042604 10.19296794 1.0543858 8.38782014 -1 6 C-0.9375 2.625 -0.9375 2.625 0 0 Z " fill="#7E2382" transform="translate(144,75)"/>
<path d="M0 0 C0 3.43254764 -0.85954374 5.76870726 -2 9 C-2.185625 10.010625 -2.37125 11.02125 -2.5625 12.0625 C-4.46176373 15.94360413 -6.69075688 16.69580901 -10.46875 18.56640625 C-14.85082849 21.04823157 -18.37049012 24.54209816 -22 28 C-22.66 27.67 -23.32 27.34 -24 27 C-23.39671875 26.46890625 -22.7934375 25.9378125 -22.171875 25.390625 C-21.37265625 24.68421875 -20.5734375 23.9778125 -19.75 23.25 C-18.56664063 22.20585938 -18.56664063 22.20585938 -17.359375 21.140625 C-13.1349202 17.30784151 -10.39172844 14.2390242 -8 9 C-6.55549846 6.11099692 -4.29968171 4.24359192 -2 2 C-1.34 1.34 -0.68 0.68 0 0 Z " fill="#5D3595" transform="translate(114,61)"/>
<path d="M0 0 C-0.51949219 0.30292969 -1.03898437 0.60585938 -1.57421875 0.91796875 C-5.97946044 3.56437087 -9.39651772 6.30412074 -13 10 C-15.28369136 11.75114989 -17.62575655 13.37061724 -20 15 C-20.08105555 11.02827794 -19.93836766 9.0046763 -17.17578125 6.046875 C-12.09718141 1.94260756 -6.70569813 -2.23523271 0 0 Z " fill="#8723A1" transform="translate(167,32)"/>
<path d="M0 0 C0 0.66 0 1.32 0 2 C-3.50857464 2.77017492 -6.04472253 2.9930603 -9.625 2.4375 C-12.84538811 1.68326009 -12.84538811 1.68326009 -14.8203125 2.99609375 C-17.80927481 4.37273051 -20.00489249 3.97772908 -23.25 3.625 C-24.32765625 3.51414062 -25.4053125 3.40328125 -26.515625 3.2890625 C-27.74539062 3.14597656 -27.74539062 3.14597656 -29 3 C-29 2.34 -29 1.68 -29 1 C-19.3314158 -0.92000254 -9.72537359 -2.20630072 0 0 Z " fill="#B040C4" transform="translate(202,19)"/>
<path d="M0 0 C1.09898702 3.29696105 0.87124444 4.40494903 0.0625 7.6875 C-0.13214844 8.49574219 -0.32679688 9.30398437 -0.52734375 10.13671875 C-0.68332031 10.75160156 -0.83929688 11.36648437 -1 12 C-1.66 12 -2.32 12 -3 12 C-3 12.99 -3 13.98 -3 15 C-3.66 15 -4.32 15 -5 15 C-4.42415568 12.61435923 -3.77772405 10.33317216 -3 8 C-4.32 7.67 -5.64 7.34 -7 7 C-7.2475 7.598125 -7.495 8.19625 -7.75 8.8125 C-9.16370012 11.28647521 -10.65055383 12.43370255 -13 14 C-6.25925926 0 -6.25925926 0 0 0 Z " fill="#472892" transform="translate(133,58)"/>
<path d="M0 0 C0.66 0.33 1.32 0.66 2 1 C1.67 2.65 1.34 4.3 1 6 C0.34 6 -0.32 6 -1 6 C-2.00854252 8.89115523 -2.93928567 11.6736605 -3.5 14.6875 C-4 17 -4 17 -6 20 C-6.99 19.67 -7.98 19.34 -9 19 C-9.51206942 13.62327113 -8.13090095 11.29380702 -5 7 C-4.46375 5.906875 -3.9275 4.81375 -3.375 3.6875 C-2 1 -2 1 0 0 Z " fill="#E09277" transform="translate(59,69)"/>
<path d="M0 0 C0.66 0.66 1.32 1.32 2 2 C4.57061311 2.64767793 4.57061311 2.64767793 7 3 C7 2.01 7 1.02 7 0 C8.98 0.66 10.96 1.32 13 2 C13 2.66 13 3.32 13 4 C15.02450921 6.02450921 17.61867301 7.42933752 20 9 C17.15647201 10.421764 15.64568503 9.54187606 12.625 8.6875 C11.19027344 8.29111328 11.19027344 8.29111328 9.7265625 7.88671875 C7 7 7 7 4.9453125 5.96484375 C2.73161617 4.86688593 0.66658278 4.37253175 -1.75 3.875 C-2.54921875 3.70742187 -3.3484375 3.53984375 -4.171875 3.3671875 C-4.77515625 3.24601562 -5.3784375 3.12484375 -6 3 C-3.375 0 -3.375 0 0 0 Z " fill="#CC5A8E" transform="translate(179,64)"/>
<path d="M0 0 C-1.3125 2.5 -1.3125 2.5 -3 5 C-3.99 5 -4.98 5 -6 5 C-6 5.66 -6 6.32 -6 7 C-7.65 7.66 -9.3 8.32 -11 9 C-11 8.34 -11 7.68 -11 7 C-10.34 7 -9.68 7 -9 7 C-9 6.01 -9 5.02 -9 4 C-14.445 6.475 -14.445 6.475 -20 9 C-20 8.01 -20 7.02 -20 6 C-13.07884955 1.65325878 -8.23887262 -0.81038091 0 0 Z " fill="#B826D1" transform="translate(167,25)"/>
<path d="M0 0 C5.35152885 0.32433508 8.28280043 3.49704824 12 7 C11.67 7.66 11.34 8.32 11 9 C9.88625 7.7934375 9.88625 7.7934375 8.75 6.5625 C6.24695171 4.23011409 5.2819045 3.36465606 2 3 C1.071875 4.485 1.071875 4.485 0.125 6 C-0.57625 6.99 -1.2775 7.98 -2 9 C-2.66 9 -3.32 9 -4 9 C-4.12375 9.5775 -4.2475 10.155 -4.375 10.75 C-5.03816998 13.13741194 -5.58836567 14.95313022 -7 17 C-9.625 17.75 -9.625 17.75 -12 18 C-10.33683133 14.23742169 -7.93143026 11.11356346 -5.4375 7.875 C-2.46232182 4.10438856 -2.46232182 4.10438856 0 0 Z " fill="#1F5C8E" transform="translate(125,135)"/>
<path d="M0 0 C1.921875 0.7109375 1.921875 0.7109375 4 2 C4.828125 4.1640625 4.828125 4.1640625 5.25 6.625 C5.39953125 7.44226563 5.5490625 8.25953125 5.703125 9.1015625 C5.85007813 10.04128906 5.85007813 10.04128906 6 11 C5.01 10.67 4.02 10.34 3 10 C2.3125 7.9375 2.3125 7.9375 2 6 C1.5875 6.804375 1.175 7.60875 0.75 8.4375 C-1 11 -1 11 -3.1875 11.8125 C-3.785625 11.874375 -4.38375 11.93625 -5 12 C-5.33 10.35 -5.66 8.7 -6 7 C-5.01 7 -4.02 7 -3 7 C-3.061875 6.21625 -3.12375 5.4325 -3.1875 4.625 C-3.125625 3.75875 -3.06375 2.8925 -3 2 C-2.01 1.34 -1.02 0.68 0 0 Z " fill="#691C7A" transform="translate(152,93)"/>
<path d="M0 0 C1.65 0 3.3 0 5 0 C4.89300781 0.68707031 4.78601563 1.37414062 4.67578125 2.08203125 C4.49595703 3.43361328 4.49595703 3.43361328 4.3125 4.8125 C4.12107422 6.15248047 4.12107422 6.15248047 3.92578125 7.51953125 C3.75108118 10.07024209 3.75108118 10.07024209 5.48046875 11.82421875 C5.98191406 12.21222656 6.48335937 12.60023437 7 13 C2.76708435 12.75579333 0.62979579 12.598306 -2.5 9.625 C-2.995 8.75875 -3.49 7.8925 -4 7 C-2.99257646 3.97772938 -2.20999438 3.11390767 0 1 C0 0.67 0 0.34 0 0 Z " fill="#C94B53" transform="translate(69,78)"/>
<path d="M0 0 C0.33 0 0.66 0 1 0 C1.33 1.98 1.66 3.96 2 6 C2.66 5.67 3.32 5.34 4 5 C3.99871094 5.72574219 3.99742188 6.45148438 3.99609375 7.19921875 C5.57205874 11.59597711 9.05307941 12.75471881 13.0625 14.8125 C13.82111328 15.21919922 14.57972656 15.62589844 15.36132812 16.04492188 C17.23272934 17.04535649 19.11535481 18.02474392 21 19 C21 19.66 21 20.32 21 21 C15.97311006 19.67713423 11.98948146 17.30040812 7.61328125 14.59765625 C3.81100451 12.27309543 -0.08904964 10.13496324 -4 8 C-3.01 7.67 -2.02 7.34 -1 7 C-0.67 4.69 -0.34 2.38 0 0 Z " fill="#963959" transform="translate(111,116)"/>
<path d="M0 0 C0.33 0.99 0.66 1.98 1 3 C1.66 3.66 2.32 4.32 3 5 C2.50628906 5.37511719 2.01257813 5.75023437 1.50390625 6.13671875 C-2.56118792 9.27538249 -2.56118792 9.27538249 -4.9375 13.6875 C-4.9853462 15.45780943 -5 17.22904412 -5 19 C-4.34 19.66 -3.68 20.32 -3 21 C-5.31 21 -7.62 21 -10 21 C-8.67620855 12.52773475 -5.3569495 6.51848871 0 0 Z " fill="#A72169" transform="translate(145,49)"/>
<path d="M0 0 C0 0.99 0 1.98 0 3 C-0.66 3 -1.32 3 -2 3 C-2.2475 3.598125 -2.495 4.19625 -2.75 4.8125 C-4.21965004 7.38438757 -5.43090159 8.53194377 -8 10 C-10.75 10.1875 -10.75 10.1875 -13 10 C-13.33 9.34 -13.66 8.68 -14 8 C-13.34 8 -12.68 8 -12 8 C-12.33 6.35 -12.66 4.7 -13 3 C-12.01 3.33 -11.02 3.66 -10 4 C-8.22188188 3.24824217 -8.22188188 3.24824217 -6.5 2.0625 C-3.91505621 0.39022277 -3.21220503 0 0 0 Z " fill="#C024D5" transform="translate(158,29)"/>
<path d="M0 0 C1.65 1.65 3.3 3.3 5 5 C5 3.35 5 1.7 5 0 C6.32 0.33 7.64 0.66 9 1 C8.88590407 2.45922693 8.75834456 3.91740598 8.625 5.375 C8.55539063 6.18710938 8.48578125 6.99921875 8.4140625 7.8359375 C8 10 8 10 6 12 C5.01 12 4.02 12 3 12 C2.49166409 10.75336669 1.99368855 9.50250613 1.5 8.25 C1.2215625 7.55390625 0.943125 6.8578125 0.65625 6.140625 C0 4 0 4 0 0 Z " fill="#B82591" transform="translate(137,112)"/>
<path d="M0 0 C7.56451613 5.40322581 7.56451613 5.40322581 8.75 9.75 C8.87375 10.86375 8.87375 10.86375 9 12 C4.99541169 11.38390949 2.16980331 9.44939347 -1 7 C-1 6.01 -1 5.02 -1 4 C-1.66 4 -2.32 4 -3 4 C-2.67 3.01 -2.34 2.02 -2 1 C-1.34 0.67 -0.68 0.34 0 0 Z " fill="#E34E88" transform="translate(197,88)"/>
<path d="M0 0 C7.32294569 0.52306755 12.96858241 2.27172417 18.5 7.25 C18.995 7.8275 19.49 8.405 20 9 C19 10 19 10 15.18359375 10.09765625 C13.60153318 10.09098089 12.01948841 10.07901875 10.4375 10.0625 C9.63119141 10.05798828 8.82488281 10.05347656 7.99414062 10.04882812 C5.99606244 10.03700518 3.99802217 10.01906914 2 10 C4.39763185 7.60236815 5.33273498 7.65719414 8.625 7.375 C9.44226563 7.30023438 10.25953125 7.22546875 11.1015625 7.1484375 C11.72804687 7.09945312 12.35453125 7.05046875 13 7 C13 6.34 13 5.68 13 5 C12.34 4.896875 11.68 4.79375 11 4.6875 C7.16158991 3.80786436 3.66903309 2.43030104 0 1 C0 0.67 0 0.34 0 0 Z " fill="#EED38F" transform="translate(198,29)"/>
<path d="M0 0 C2.875 -0.125 2.875 -0.125 6 0 C6.66 0.66 7.32 1.32 8 2 C7.25838623 2.20681396 6.51677246 2.41362793 5.75268555 2.62670898 C2.39740683 3.56286408 -0.95754978 4.50016837 -4.3125 5.4375 C-5.47974609 5.76298828 -6.64699219 6.08847656 -7.84960938 6.42382812 C-8.96787109 6.73642578 -10.08613281 7.04902344 -11.23828125 7.37109375 C-12.26993408 7.65911865 -13.30158691 7.94714355 -14.36450195 8.24389648 C-16.25579852 8.78649449 -18.13337905 9.37779302 -20 10 C-20 9.34 -20 8.68 -20 8 C-17.77542155 6.98855432 -15.54625709 5.99079735 -13.3125 5 C-12.68666016 4.71382812 -12.06082031 4.42765625 -11.41601562 4.1328125 C-7.80007233 2.54255472 -4.95809151 1.63673348 -1 2 C-0.67 1.34 -0.34 0.68 0 0 Z " fill="#9F2DA1" transform="translate(188,20)"/>
<path d="M0 0 C0.66 0.33 1.32 0.66 2 1 C-0.28608004 3.5498585 -2.08115249 5.03978063 -5.1875 6.5625 C-8.30282904 7.74045087 -8.30282904 7.74045087 -9 11 C-13.12121212 14.11875512 -13.12121212 14.11875512 -16.3125 13.6875 C-16.869375 13.460625 -17.42625 13.23375 -18 13 C-17.8125 10.625 -17.8125 10.625 -17 8 C-14.4375 6.6875 -14.4375 6.6875 -12 6 C-12 6.66 -12 7.32 -12 8 C-11.649375 7.566875 -11.29875 7.13375 -10.9375 6.6875 C-8.26731076 4.36185131 -5.24953491 3.35889642 -2 2 C-1.34 1.34 -0.68 0.68 0 0 Z " fill="#9027C3" transform="translate(146,41)"/>
<path d="M0 0 C0.33 0 0.66 0 1 0 C1.74884914 6.91245363 2.01826373 13.12671984 1 20 C1.33 20.66 1.66 21.32 2 22 C0.6875 24.625 0.6875 24.625 -1 27 C-1.66 27 -2.32 27 -3 27 C-3.33 27.99 -3.66 28.98 -4 30 C-5 27 -5 27 -4.125 24.875 C-2.80876894 21.51129841 -2.53640171 18.46911495 -2.24609375 14.890625 C-2 13 -2 13 -1 12 C-0.76572222 9.98405418 -0.58663876 7.961526 -0.4375 5.9375 C-0.35371094 4.83277344 -0.26992187 3.72804687 -0.18359375 2.58984375 C-0.12300781 1.73519531 -0.06242188 0.88054687 0 0 Z " fill="#965176" transform="translate(142,153)"/>
<path d="M0 0 C0.33 0 0.66 0 1 0 C1.33 2.31 1.66 4.62 2 7 C2.33 7 2.66 7 3 7 C3.05410687 8.77049689 3.09284119 10.54146849 3.125 12.3125 C3.14820313 13.29863281 3.17140625 14.28476563 3.1953125 15.30078125 C3 18 3 18 1 21 C-1.11297278 17.83054084 -1.39695685 15.66767735 -1.78125 11.94140625 C-2.01138294 9.89897644 -2.42458307 7.97285804 -3 6 C-2.34 5.67 -1.68 5.34 -1 5 C-0.34444881 2.47266765 -0.34444881 2.47266765 0 0 Z " fill="#964090" transform="translate(155,105)"/>
<path d="M0 0 C1.21236328 0.01353516 1.21236328 0.01353516 2.44921875 0.02734375 C3.37154297 0.04474609 3.37154297 0.04474609 4.3125 0.0625 C3.3225 0.3925 2.3325 0.7225 1.3125 1.0625 C1.3125 1.7225 1.3125 2.3825 1.3125 3.0625 C-4.3125 5.1875 -4.3125 5.1875 -7.6875 4.0625 C-8.0175 4.7225 -8.3475 5.3825 -8.6875 6.0625 C-10.00616272 7.740798 -11.33830468 9.40864767 -12.6875 11.0625 C-13.6775 10.7325 -14.6675 10.4025 -15.6875 10.0625 C-11.50313793 3.33763239 -8.15380594 -0.1181711 0 0 Z " fill="#E89D60" transform="translate(75.6875,56.9375)"/>
<path d="M0 0 C0.66 0.33 1.32 0.66 2 1 C2 1.66 2 2.32 2 3 C2.66 3 3.32 3 4 3 C3.67 5.97 3.34 8.94 3 12 C2.01 11.67 1.02 11.34 0 11 C-0.6875 8.9375 -0.6875 8.9375 -1 7 C-2.32 6.67 -3.64 6.34 -5 6 C-5.33 4.35 -5.66 2.7 -6 1 C-5.38125 1.20625 -4.7625 1.4125 -4.125 1.625 C-3.073125 1.810625 -3.073125 1.810625 -2 2 C-1.34 1.34 -0.68 0.68 0 0 Z " fill="#8727AF" transform="translate(139,105)"/>
<path d="M0 0 C2.57498808 2.57498808 3.06266755 4.83827942 4.125 8.3125 C4.47820312 9.44300781 4.83140625 10.57351562 5.1953125 11.73828125 C5.91707403 14.66386802 6.16826562 17.01048079 6 20 C1.7257442 18.4169423 -0.26531794 15.49431596 -3 12 C-0.525 12.495 -0.525 12.495 2 13 C1.855625 12.39671875 1.71125 11.7934375 1.5625 11.171875 C1.376875 10.37265625 1.19125 9.5734375 1 8.75 C0.814375 7.96109375 0.62875 7.1721875 0.4375 6.359375 C0 4 0 4 0 0 Z " fill="#AE709E" transform="translate(177,96)"/>
<path d="M0 0 C1.66666667 0 3.33333333 0 5 0 C5.02708567 1.60407328 5.04643483 3.2082785 5.0625 4.8125 C5.07410156 5.70582031 5.08570312 6.59914063 5.09765625 7.51953125 C5 10 5 10 4 13 C2.68 12.67 1.36 12.34 0 12 C-0.19401633 10.18818595 -0.38004375 8.37551468 -0.5625 6.5625 C-0.66691406 5.55316406 -0.77132812 4.54382813 -0.87890625 3.50390625 C-0.91886719 2.67761719 -0.95882812 1.85132812 -1 1 C-0.67 0.67 -0.34 0.34 0 0 Z " fill="#206BAB" transform="translate(122,106)"/>
<path d="M0 0 C2.39073445 3.82517513 2.55966552 7.59665524 3 12 C7.29 12.99 11.58 13.98 16 15 C16 15.33 16 15.66 16 16 C13.32251708 15.70791095 10.66591534 15.37770794 8 15 C6.77990234 14.83371094 6.77990234 14.83371094 5.53515625 14.6640625 C3.24382368 14.27041379 1.16751633 13.84241706 -1 13 C-3.02486087 10.11846723 -3.12391008 8.76116189 -2.5625 5.3125 C-2.376875 4.549375 -2.19125 3.78625 -2 3 C-2.33 2.34 -2.66 1.68 -3 1 C-2.01 0.67 -1.02 0.34 0 0 Z " fill="#E6A35F" transform="translate(194,42)"/>
<path d="M0 0 C0.33 0.99 0.66 1.98 1 3 C-0.2435221 4.47259196 -1.4920373 5.94185701 -2.78515625 7.37109375 C-4.56503619 9.75762087 -4.79175557 12.08457792 -5 15 C-6.98 15 -8.96 15 -11 15 C-11.33 14.01 -11.66 13.02 -12 12 C-11.236875 11.2575 -10.47375 10.515 -9.6875 9.75 C-7.04428801 7.176446 -7.04428801 7.176446 -5.3125 4.6875 C-4.879375 4.130625 -4.44625 3.57375 -4 3 C-3.34 3 -2.68 3 -2 3 C-2 2.34 -2 1.68 -2 1 C-1.34 0.67 -0.68 0.34 0 0 Z " fill="#0E3B87" transform="translate(121,89)"/>
<path d="M0 0 C0 0.66 0 1.32 0 2 C-1.65 2.33 -3.3 2.66 -5 3 C-5 3.66 -5 4.32 -5 5 C-8.63 5 -12.26 5 -16 5 C-15.34 7.31 -14.68 9.62 -14 12 C-14.66 12 -15.32 12 -16 12 C-16.67119549 10.5437455 -17.33681807 9.08492133 -18 7.625 C-18.37125 6.81289062 -18.7425 6.00078125 -19.125 5.1640625 C-20 3 -20 3 -20 1 C-19.03578125 1.09539062 -18.0715625 1.19078125 -17.078125 1.2890625 C-15.81484375 1.39992188 -14.5515625 1.51078125 -13.25 1.625 C-11.99703125 1.74101563 -10.7440625 1.85703125 -9.453125 1.9765625 C-5.6947368 2.00207192 -3.45344489 0 0 0 Z " fill="#433773" transform="translate(90,89)"/>
<path d="M0 0 C0 0.66 0 1.32 0 2 C-1.155 2.556875 -2.31 3.11375 -3.5 3.6875 C-8.96740584 6.42604133 -14.13271791 9.42318401 -18.8125 13.375 C-19.534375 13.91125 -20.25625 14.4475 -21 15 C-21.99 14.67 -22.98 14.34 -24 14 C-8.79881657 0 -8.79881657 0 0 0 Z " fill="#DD6880" transform="translate(178,27)"/>
<path d="M0 0 C0.556875 0.309375 1.11375 0.61875 1.6875 0.9375 C4.12540433 2.05761821 6.36224186 2.56037364 9 3 C8.67 3.99 8.34 4.98 8 6 C8.99 6.33 9.98 6.66 11 7 C10.67 7.66 10.34 8.32 10 9 C9.34 9 8.68 9 8 9 C8 9.66 8 10.32 8 11 C5.53471865 10.60935585 4.26692012 10.26760629 2.48046875 8.4765625 C2.05378906 7.86554688 1.62710938 7.25453125 1.1875 6.625 C0.74792969 6.01914063 0.30835937 5.41328125 -0.14453125 4.7890625 C-1 3 -1 3 0 0 Z " fill="#122B72" transform="translate(76,100)"/>
<path d="M0 0 C1.32 0.99 2.64 1.98 4 3 C3.87882813 3.58265625 3.75765625 4.1653125 3.6328125 4.765625 C2.25920651 11.48572816 1.09358533 18.22907805 0 25 C-0.99 25 -1.98 25 -3 25 C-3.33 23.02 -3.66 21.04 -4 19 C-3.01 19.33 -2.02 19.66 -1 20 C-0.67 13.4 -0.34 6.8 0 0 Z " fill="#6A5193" transform="translate(127,99)"/>
<path d="M0 0 C0.66 0 1.32 0 2 0 C0.6145759 4.23909658 -1.32712012 6.70658025 -4.5 9.8125 C-5.2940625 10.60269531 -6.088125 11.39289063 -6.90625 12.20703125 C-9 14 -9 14 -11 14 C-10.39254603 9.14036821 -8.27241033 5.2594482 -6 1 C-5.34 2.32 -4.68 3.64 -4 5 C-3.34 5 -2.68 5 -2 5 C-1.34 3.35 -0.68 1.7 0 0 Z " fill="#4B9EC0" transform="translate(136,170)"/>
<path d="M0 0 C0.33 0.66 0.66 1.32 1 2 C0.67 2.66 0.34 3.32 0 4 C1.65 4 3.3 4 5 4 C2.72402354 6.49552403 0.39278822 8.06622986 -2.5625 9.6875 C-3.74005859 10.34298828 -3.74005859 10.34298828 -4.94140625 11.01171875 C-7 12 -7 12 -9 12 C-7.55575365 8.76138697 -5.74227753 6.38030837 -3.375 3.75 C-2.74335937 3.04359375 -2.11171875 2.3371875 -1.4609375 1.609375 C-0.97882813 1.07828125 -0.49671875 0.5471875 0 0 Z " fill="#4299C1" transform="translate(116,167)"/>
<path d="M0 0 C4.14757302 0.44341488 8.29261109 0.90721004 12.4375 1.375 C13.62150391 1.50132813 14.80550781 1.62765625 16.02539062 1.7578125 C17.15009766 1.88671875 18.27480469 2.015625 19.43359375 2.1484375 C20.47572021 2.26364746 21.51784668 2.37885742 22.59155273 2.49755859 C23.38634033 2.66336426 24.18112793 2.82916992 25 3 C25.33 3.66 25.66 4.32 26 5 C18.1695537 6.09970735 12.2832332 6.18084062 5 3 C3.989375 2.608125 2.97875 2.21625 1.9375 1.8125 C1.298125 1.544375 0.65875 1.27625 0 1 C0 0.67 0 0.34 0 0 Z " fill="#D44C72" transform="translate(162,50)"/>
<path d="M0 0 C0 4.62 0 9.24 0 14 C-1.32 14.33 -2.64 14.66 -4 15 C-4.08252495 10.21355271 -4.14242743 5.68395246 -3 1 C-1 0 -1 0 0 0 Z " fill="#D0256D" transform="translate(149,135)"/>
<path d="M0 0 C3.63 0 7.26 0 11 0 C11.33 1.32 11.66 2.64 12 4 C10.35 3.67 8.7 3.34 7 3 C7 4.65 7 6.3 7 8 C6.67 7.34 6.34 6.68 6 6 C4.7625 5.566875 4.7625 5.566875 3.5 5.125 C2.675 4.75375 1.85 4.3825 1 4 C0.67 2.68 0.34 1.36 0 0 Z " fill="#115B98" transform="translate(109,104)"/>
<path d="M0 0 C0.99 0.33 1.98 0.66 3 1 C2.67 2.32 2.34 3.64 2 5 C3.98 5 5.96 5 8 5 C8 5.66 8 6.32 8 7 C2.06 7.495 2.06 7.495 -4 8 C-4.33 6.68 -4.66 5.36 -5 4 C-2.6875 1.9375 -2.6875 1.9375 0 0 Z " fill="#E66864" transform="translate(164,35)"/>
<path d="M0 0 C2.31 0 4.62 0 7 0 C5.68 0.33 4.36 0.66 3 1 C3 1.66 3 2.32 3 3 C3.60328125 3.19335938 4.2065625 3.38671875 4.828125 3.5859375 C6.02695313 3.97652344 6.02695313 3.97652344 7.25 4.375 C8.03890625 4.63023438 8.8278125 4.88546875 9.640625 5.1484375 C11.86627958 5.95173667 13.90931672 6.89711662 16 8 C16 8.66 16 9.32 16 10 C9.77274933 8.34608232 4.46037442 6.44240996 -1 3 C-0.67 2.01 -0.34 1.02 0 0 Z " fill="#7D1A3B" transform="translate(91,114)"/>
<path d="M0 0 C1.64767247 0.28109113 3.29313145 0.57518526 4.9375 0.875 C5.85402344 1.03742188 6.77054688 1.19984375 7.71484375 1.3671875 C8.46894531 1.57601562 9.22304687 1.78484375 10 2 C11.33332095 4.6666419 10.67102033 6.16680303 10 9 C7.525 8.01 7.525 8.01 5 7 C5 6.34 5 5.68 5 5 C4.01 5 3.02 5 2 5 C2 4.34 2 3.68 2 3 C1.01 2.67 0.02 2.34 -1 2 C-0.67 1.34 -0.34 0.68 0 0 Z " fill="#611479" transform="translate(134,73)"/>
<path d="M0 0 C2.66666667 1.33333333 5.33333333 2.66666667 8 4 C8 4.66 8 5.32 8 6 C8.721875 6.20625 9.44375 6.4125 10.1875 6.625 C13.9255306 8.45248163 15.49246917 10.70438806 18 14 C17.01 14.33 16.02 14.66 15 15 C14.319375 14.29875 13.63875 13.5975 12.9375 12.875 C8.93078417 8.86828417 4.71688381 5.14458921 0 2 C0 1.34 0 0.68 0 0 Z " fill="#EBBC80" transform="translate(195,43)"/>
<path d="M0 0 C0 0.99 0 1.98 0 3 C-1.97956942 4.69088222 -3.97945196 6.35830472 -6 8 C-6 8.66 -6 9.32 -6 10 C-7.32 10 -8.64 10 -10 10 C-8.93354885 11.29633621 -8.93354885 11.29633621 -6.4375 11.0625 C-5.633125 11.041875 -4.82875 11.02125 -4 11 C-7.16240582 13.10827055 -8.50657469 13.33817465 -12.1875 13.625 C-13.08855469 13.69976562 -13.98960938 13.77453125 -14.91796875 13.8515625 C-15.60503906 13.90054688 -16.29210937 13.94953125 -17 14 C-14.46798438 11.97256918 -11.93410864 9.94764255 -9.39453125 7.9296875 C-8.54246094 7.25164062 -7.69039062 6.57359375 -6.8125 5.875 C-5.95269531 5.19179687 -5.09289062 4.50859375 -4.20703125 3.8046875 C-1.97105373 2.03758139 -1.97105373 2.03758139 0 0 Z " fill="#3B7AA9" transform="translate(111,152)"/>
<path d="M0 0 C3.37462715 0.54723683 5.08235 1.0549 8 3 C7.3125 4.9375 7.3125 4.9375 6 7 C3.375 7.75 3.375 7.75 1 8 C-1 5 -1 5 -0.625 2.3125 C-0.41875 1.549375 -0.2125 0.78625 0 0 Z " fill="#70207F" transform="translate(144,75)"/>
<path d="M0 0 C0.66 0.66 1.32 1.32 2 2 C1.625 4.125 1.625 4.125 1 6 C0.34 6 -0.32 6 -1 6 C-1.226875 6.7425 -1.45375 7.485 -1.6875 8.25 C-3.24407532 11.51139591 -5.08518854 12.92894975 -8 15 C-6.18690997 11.22272911 -4.0926741 7.62730178 -2 4 C-2.66 4 -3.32 4 -4 4 C-4.33 4.99 -4.66 5.98 -5 7 C-7.0625 7.6875 -7.0625 7.6875 -9 8 C-7.82255415 4.46766245 -7.04394359 4.13691925 -3.9375 2.3125 C-3.20402344 1.87550781 -2.47054687 1.43851563 -1.71484375 0.98828125 C-1.14894531 0.66214844 -0.58304688 0.33601563 0 0 Z " fill="#72229D" transform="translate(146,43)"/>
<path d="M0 0 C-1.4976696 2.49824035 -3.01558218 4.86004673 -5 7 C-7.8125 7.4375 -7.8125 7.4375 -10 7 C-10.3125 4.6875 -10.3125 4.6875 -10 2 C-6.51622514 -0.98609274 -4.33645582 -1.36288612 0 0 Z " fill="#2279B4" transform="translate(126,164)"/>
<path d="M0 0 C4.29951803 1.59241408 6.39671947 4.35540725 9 8 C8.67 8.99 8.34 9.98 8 11 C3.05 9.02 3.05 9.02 -2 7 C-0.68 6.67 0.64 6.34 2 6 C2.33 5.67 2.66 5.34 3 5 C2.01 4.34 1.02 3.68 0 3 C0 2.01 0 1.02 0 0 Z " fill="#CD83A5" transform="translate(208,70)"/>
<path d="M0 0 C3.82964398 0.62343042 5.15414606 2.5793571 7.6875 5.4375 C8.8321875 6.5821875 8.8321875 6.5821875 10 7.75 C10.556875 8.306875 11.11375 8.86375 11.6875 9.4375 C6.75994093 8.98954008 5.06109616 7.91652104 1.6875 4.4375 C-1.44600717 3.16965876 -1.44600717 3.16965876 -4.3125 2.4375 C-2.3125 0.4375 -2.3125 0.4375 0 0 Z " fill="#C4658B" transform="translate(190.3125,53.5625)"/>
<path d="M0 0 C2.31 0 4.62 0 7 0 C1.62903226 5.66935484 1.62903226 5.66935484 -2 7 C-2.99 7 -3.98 7 -5 7 C-4.67 5.68 -4.34 4.36 -4 3 C-2.68 2.67 -1.36 2.34 0 2 C0 1.34 0 0.68 0 0 Z " fill="#AB24CF" transform="translate(142,39)"/>
<path d="M0 0 C1.32 0 2.64 0 4 0 C4.66 0.99 5.32 1.98 6 3 C8.05925139 3.72382467 8.05925139 3.72382467 10 4 C10 4.66 10 5.32 10 6 C12.97 6.495 12.97 6.495 16 7 C16.33 7.99 16.66 8.98 17 10 C6.90882638 6.90009699 6.90882638 6.90009699 3 4 C3 3.34 3 2.68 3 2 C1.35 2 -0.3 2 -2 2 C-1.34 1.34 -0.68 0.68 0 0 Z " fill="#AE2B66" transform="translate(159,75)"/>
<path d="M0 0 C-0.49071618 6.37931034 -0.49071618 6.37931034 -3 9.4375 C-5 11 -5 11 -6 11 C-6.33 9.02 -6.66 7.04 -7 5 C-6.01 5 -5.02 5 -4 5 C-4 3.68 -4 2.36 -4 1 C-2 0 -2 0 0 0 Z " fill="#228DC9" transform="translate(137,165)"/>
<path d="M0 0 C0.66 0.66 1.32 1.32 2 2 C3.32 2 4.64 2 6 2 C6 2.66 6 3.32 6 4 C6.99 4.33 7.98 4.66 9 5 C9.33 5.66 9.66 6.32 10 7 C7.61435923 6.42415568 5.33317216 5.77772405 3 5 C1.44091346 4.63109697 -0.12193041 4.27784121 -1.6875 3.9375 C-2.49574219 3.76089844 -3.30398437 3.58429688 -4.13671875 3.40234375 C-4.75160156 3.26957031 -5.36648437 3.13679688 -6 3 C-3.375 0 -3.375 0 0 0 Z " fill="#CE4881" transform="translate(179,64)"/>
<path d="M0 0 C0 0.99 0 1.98 0 3 C0.99 3.33 1.98 3.66 3 4 C0.47524538 5.26237731 -1.31200466 5.09856404 -4.125 5.0625 C-5.03507813 5.05347656 -5.94515625 5.04445313 -6.8828125 5.03515625 C-7.58148438 5.02355469 -8.28015625 5.01195312 -9 5 C-9 4.01 -9 3.02 -9 2 C-3.375 0 -3.375 0 0 0 Z " fill="#ECB26A" transform="translate(199,34)"/>
<path d="M0 0 C3.28702019 3.28702019 3.1833973 6.42371926 3.25 10.875 C3.27578125 11.90367187 3.3015625 12.93234375 3.328125 13.9921875 C2.95578391 17.40531414 2.06712665 19.28062465 0 22 C-0.66 22 -1.32 22 -2 22 C-2 20.68 -2 19.36 -2 18 C-1.34 17.67 -0.68 17.34 0 17 C1.10736685 11.34761442 1.36663932 5.61840611 0 0 Z " fill="#3768A0" transform="translate(139,148)"/>
<path d="M0 0 C2 2 2 2 2.125 4.625 C2.08375 5.40875 2.0425 6.1925 2 7 C1.34 7 0.68 7 0 7 C0 7.66 0 8.32 0 9 C-1.65 9 -3.3 9 -5 9 C-5 7.68 -5 6.36 -5 5 C-4.34 5 -3.68 5 -3 5 C-2.87625 4.360625 -2.7525 3.72125 -2.625 3.0625 C-2.41875 2.381875 -2.2125 1.70125 -2 1 C-1.34 0.67 -0.68 0.34 0 0 Z " fill="#0F63A8" transform="translate(121,147)"/>
<path d="M0 0 C0 3 0 3 -2.375 5.5625 C-3.674375 6.7690625 -3.674375 6.7690625 -5 8 C-5.66 8.66 -6.32 9.32 -7 10 C-10.0625 9.75 -10.0625 9.75 -13 9 C-13.33 8.34 -13.66 7.68 -14 7 C-13.27425781 6.89816406 -12.54851562 6.79632813 -11.80078125 6.69140625 C-8.70268347 5.92660387 -6.78911705 4.76251495 -4.1875 2.9375 C-3.39730469 2.38964844 -2.60710937 1.84179688 -1.79296875 1.27734375 C-1.20128906 0.85582031 -0.60960938 0.43429688 0 0 Z " fill="#C86E78" transform="translate(103,74)"/>
<path d="M0 0 C3 1 3 1 4.25 2.8125 C5.11637742 5.33943414 4.88492145 6.52221994 4 9 C1.03 8.505 1.03 8.505 -2 8 C-1.34 5.36 -0.68 2.72 0 0 Z " fill="#106AAF" transform="translate(136,149)"/>
<path d="M0 0 C4.29 0 8.58 0 13 0 C13 0.66 13 1.32 13 2 C11.68 2 10.36 2 9 2 C9 2.66 9 3.32 9 4 C5.14354879 4.22036864 2.50776784 3.60355101 -1 2 C-0.67 1.34 -0.34 0.68 0 0 Z " fill="#DA9071" transform="translate(179,26)"/>
<path d="M0 0 C5.35152885 0.32433508 8.28280043 3.49704824 12 7 C11.67 7.66 11.34 8.32 11 9 C9.88625 7.7934375 9.88625 7.7934375 8.75 6.5625 C5.80801845 3.59259487 5.80801845 3.59259487 2 3 C-0.27144074 4.85432087 -0.27144074 4.85432087 -2 7 C-2.66 6.67 -3.32 6.34 -4 6 C-2.68 4.02 -1.36 2.04 0 0 Z " fill="#2D366F" transform="translate(125,135)"/>
<path d="M0 0 C0.66 0.66 1.32 1.32 2 2 C1.64700993 5.44165321 0.95418308 7.06872538 -1 10 C-1.66 10 -2.32 10 -3 10 C-2.67 11.32 -2.34 12.64 -2 14 C-2.99 14 -3.98 14 -5 14 C-4.74438677 11.6568787 -4.40729228 9.32156597 -4 7 C-3.34 6.67 -2.68 6.34 -2 6 C-1.27306096 4.02111039 -0.60183749 2.02045442 0 0 Z " fill="#73267B" transform="translate(153,97)"/>
<path d="M0 0 C4.62272814 1.49558852 7.52369849 3.68171219 11 7 C11.875 9.3125 11.875 9.3125 12 11 C11.01 11 10.02 11 9 11 C7.94228261 9.36935236 6.94726954 7.69719127 6 6 C4.5420814 4.20614008 4.5420814 4.20614008 3 3 C2.34 3 1.68 3 1 3 C0.34 3.99 -0.32 4.98 -1 6 C-1.33 5.01 -1.66 4.02 -2 3 C-1.34 2.01 -0.68 1.02 0 0 Z " fill="#1D488C" transform="translate(127,137)"/>
<path d="M0 0 C2.475 0.495 2.475 0.495 5 1 C5.33 3.64 5.66 6.28 6 9 C5.34 7.68 4.68 6.36 4 5 C1.66924071 5.95865509 1.66924071 5.95865509 0 9 C0 6.03 0 3.06 0 0 Z " fill="#5F427D" transform="translate(116,107)"/>
<path d="M0 0 C3 1 3 1 3.94921875 2.84765625 C4.19285156 3.57855469 4.43648437 4.30945313 4.6875 5.0625 C4.93886719 5.79597656 5.19023437 6.52945313 5.44921875 7.28515625 C5.63097656 7.85105469 5.81273437 8.41695312 6 9 C4.68 9.33 3.36 9.66 2 10 C2 9.34 2 8.68 2 8 C1.34 8 0.68 8 0 8 C0 5.36 0 2.72 0 0 Z " fill="#C33D7C" transform="translate(129,103)"/>
<path d="M0 0 C3 1 3 1 4.1875 3.3125 C5 6 5 6 5 10 C4.34 10 3.68 10 3 10 C2.67 7.69 2.34 5.38 2 3 C1.443125 3.495 0.88625 3.99 0.3125 4.5 C-2.38162983 6.24754367 -3.85375007 6.26218749 -7 6 C-6.401875 5.566875 -5.80375 5.13375 -5.1875 4.6875 C-3.29216913 3.22538761 -1.6471407 1.72949773 0 0 Z " fill="#7B205D" transform="translate(106,106)"/>
<path d="M0 0 C0.99 0.66 1.98 1.32 3 2 C2.51789063 2.38671875 2.03578125 2.7734375 1.5390625 3.171875 C0.90742187 3.69265625 0.27578125 4.2134375 -0.375 4.75 C-1.00148438 5.26046875 -1.62796875 5.7709375 -2.2734375 6.296875 C-4.08312318 8.08199481 -5.00117455 9.67949644 -6 12 C-6.66 12 -7.32 12 -8 12 C-8.33 12.99 -8.66 13.98 -9 15 C-9.66 14.67 -10.32 14.34 -11 14 C-7.80173015 8.88276824 -4.04165813 4.47307108 0 0 Z " fill="#702FA2" transform="translate(124,50)"/>
<path d="M0 0 C0.99 0.33 1.98 0.66 3 1 C3.25532751 4.06393013 3.21861333 5.63233212 1.625 8.3125 C0.820625 9.1478125 0.820625 9.1478125 0 10 C-0.66 10 -1.32 10 -2 10 C-0.125 5.25 -0.125 5.25 1 3 C0.21625 3.495 -0.5675 3.99 -1.375 4.5 C-4 6 -4 6 -6 6 C-6 5.34 -6 4.68 -6 4 C-3 2 -3 2 0 2 C0 1.34 0 0.68 0 0 Z " fill="#225F8B" transform="translate(121,154)"/>
<path d="M0 0 C0.66 0 1.32 0 2 0 C2.70226141 1.24176695 3.38629109 2.49385599 4.0625 3.75 C4.44535156 4.44609375 4.82820313 5.1421875 5.22265625 5.859375 C6.1312406 8.36140628 5.88336837 9.5332355 5 12 C3.02 8.535 3.02 8.535 1 5 C0.01 5.99 -0.98 6.98 -2 8 C-1.125 1.125 -1.125 1.125 0 0 Z " fill="#7F1D52" transform="translate(118,112)"/>
<path d="M0 0 C2.97 0.495 2.97 0.495 6 1 C5.67 1.66 5.34 2.32 5 3 C4.34 3 3.68 3 3 3 C2.67 3.66 2.34 4.32 2 5 C-1.24733335 6.2757381 -3.67032582 5.83241855 -7 5 C-6.01 4.34 -5.02 3.68 -4 3 C-3.34 3.33 -2.68 3.66 -2 4 C-1.34 2.68 -0.68 1.36 0 0 Z " fill="#CC5B5E" transform="translate(64,78)"/>
<path d="M0 0 C0 0.66 0 1.32 0 2 C-1.95224208 3.28406399 -3.96340762 4.47941678 -6 5.625 C-7.11375 6.25664062 -8.2275 6.88828125 -9.375 7.5390625 C-10.24125 8.02117188 -11.1075 8.50328125 -12 9 C-12.66 8.34 -13.32 7.68 -14 7 C-12.37554381 6.01993141 -10.75041739 5.04097364 -9.125 4.0625 C-8.22007812 3.51722656 -7.31515625 2.97195312 -6.3828125 2.41015625 C-2.31024931 0 -2.31024931 0 0 0 Z " fill="#9E2CAA" transform="translate(160,25)"/>
<path d="M0 0 C0.99 0.33 1.98 0.66 3 1 C3 4 3 4 2 6 C0.35636866 6.72159424 -1.31050386 7.39351421 -3 8 C-3.75 6.25 -3.75 6.25 -4 4 C-2.0625 1.75 -2.0625 1.75 0 0 Z " fill="#652AAF" transform="translate(138,100)"/>
<path d="M0 0 C0.66 0.33 1.32 0.66 2 1 C0.625 3 0.625 3 -1 5 C-1.66 5 -2.32 5 -3 5 C-3.226875 5.9075 -3.45375 6.815 -3.6875 7.75 C-5.18127977 11.44888324 -6.75400577 12.77905658 -10 15 C-10.33 13.68 -10.66 12.36 -11 11 C-10.1028125 10.938125 -10.1028125 10.938125 -9.1875 10.875 C-6.64899168 10.12260099 -6.64899168 10.12260099 -5.25 6.9375 C-4.8375 5.968125 -4.425 4.99875 -4 4 C-3.34 4 -2.68 4 -2 4 C-2 3.01 -2 2.02 -2 1 C-1.34 0.67 -0.68 0.34 0 0 Z " fill="#5335A8" transform="translate(121,67)"/>
<path d="M0 0 C0.99 0.33 1.98 0.66 3 1 C1.54261898 1.98058352 0.08406325 2.95942132 -1.375 3.9375 C-2.59316406 4.75541016 -2.59316406 4.75541016 -3.8359375 5.58984375 C-7.74881511 8.13957086 -10.32541698 8.08656635 -15 8 C-11.56555214 5.71036809 -8.12406553 4.44605107 -4.27734375 3 C-1.86149699 2.10359222 -1.86149699 2.10359222 0 0 Z " fill="#A44069" transform="translate(92,84)"/>
<path d="M0 0 C0 0.33 0 0.66 0 1 C-0.94875 1.309375 -1.8975 1.61875 -2.875 1.9375 C-5.86080408 2.87394742 -5.86080408 2.87394742 -8 4 C-8 3.34 -8 2.68 -8 2 C-10.97 2 -13.94 2 -17 2 C-11.36859925 -0.81570037 -6.08679438 -1.71191092 0 0 Z " fill="#DB595F" transform="translate(177,42)"/>
<path d="M0 0 C0.33 0.66 0.66 1.32 1 2 C3.97 2 6.94 2 10 2 C7.36505677 3.75662882 5.96001018 4.41863393 3 5.125 C2.319375 5.29257812 1.63875 5.46015625 0.9375 5.6328125 C-1 6 -1 6 -4 6 C-4 5.34 -4 4.68 -4 4 C-3.01 3.34 -2.02 2.68 -1 2 C-0.67 1.34 -0.34 0.68 0 0 Z " fill="#BA25D2" transform="translate(172,20)"/>
<path d="M0 0 C0.99 0 1.98 0 3 0 C2.46515599 5.34844008 0.53309233 9.35796103 -2 14 C-3.21065165 10.36804504 -2.62784815 8.93468371 -1.5625 5.3125 C-1.27503906 4.31863281 -0.98757812 3.32476562 -0.69140625 2.30078125 C-0.46324219 1.54152344 -0.23507813 0.78226563 0 0 Z " fill="#B92865" transform="translate(145,159)"/>
<path d="M0 0 C0.33 0 0.66 0 1 0 C1.33 4.62 1.66 9.24 2 14 C0.35 14.66 -1.3 15.32 -3 16 C-3.33 14.68 -3.66 13.36 -4 12 C-3.34 12 -2.68 12 -2 12 C-1.34 8.04 -0.68 4.08 0 0 Z " fill="#8B1A54" transform="translate(128,112)"/>
<path d="M0 0 C1.77305664 0.25587405 3.54344608 0.53027739 5.3125 0.8125 C6.79169922 1.03873047 6.79169922 1.03873047 8.30078125 1.26953125 C11.12699269 2.03436705 12.1959128 2.75258762 14 5 C11.36 4.67 8.72 4.34 6 4 C5.67 4.66 5.34 5.32 5 6 C3.35 4.02 1.7 2.04 0 0 Z " fill="#6F0A6C" transform="translate(132,70)"/>
<path d="M0 0 C2.97 0 5.94 0 9 0 C8.01 0.33 7.02 0.66 6 1 C6 1.66 6 2.32 6 3 C4.02253397 3.73080266 2.01927511 4.39421747 0 5 C-0.66 4.67 -1.32 4.34 -2 4 C-1.34 2.68 -0.68 1.36 0 0 Z " fill="#F2A355" transform="translate(71,57)"/>
<path d="M0 0 C3.2542015 2.83430453 4.5206753 4.68607774 5 9 C1.00544473 8.38545304 -1.74466336 6.29353263 -5 4 C-3 4 -1 4 1 4 C0.67 2.68 0.34 1.36 0 0 Z " fill="#CA6E92" transform="translate(201,91)"/>
<path d="M0 0 C0.99 0.66 1.98 1.32 3 2 C2.0925 2.37125 1.185 2.7425 0.25 3.125 C-3.49346578 5.2846918 -4.79097583 7.34368413 -7 11 C-8.75 12.875 -8.75 12.875 -10 14 C-9.47616397 9.89542181 -8.34834816 7.78489488 -5.5625 4.75 C-4.94503906 4.06421875 -4.32757813 3.3784375 -3.69140625 2.671875 C-2 1 -2 1 0 0 Z " fill="#DFB189" transform="translate(68,56)"/>
<path d="M0 0 C3.72433382 1.2125738 7.37802806 2.50859979 11 4 C11 4.66 11 5.32 11 6 C11.99 6.33 12.98 6.66 14 7 C11.36 7 8.72 7 6 7 C5.67 6.01 5.34 5.02 5 4 C2.49552484 2.78130071 2.49552484 2.78130071 0 2 C0 1.34 0 0.68 0 0 Z " fill="#F4C561" transform="translate(200,30)"/>
<path d="M0 0 C3.73487777 0.4979837 5.81237635 0.87491756 9 3 C5.86501708 4.85776765 3.62528568 5.20140476 0 5 C0 3.35 0 1.7 0 0 Z " fill="#C84B4B" transform="translate(76,77)"/>
<path d="M0 0 C0.66 0 1.32 0 2 0 C2.10010827 3.50378937 1.72046209 6.57780506 1 10 C1 10.99 1 11.98 1 13 C-0.5 11.875 -0.5 11.875 -2 10 C-2.42098999 6.04269405 -2.09065618 3.39731629 0 0 Z " fill="#411177" transform="translate(130,70)"/>
<path d="M0 0 C0 0.99 0 1.98 0 3 C-0.99 3 -1.98 3 -3 3 C-3 3.66 -3 4.32 -3 5 C-4.98 5 -6.96 5 -9 5 C-7.93411431 2.09303901 -7.29651501 1.15567038 -4.5 -0.3125 C-2 -1 -2 -1 0 0 Z " fill="#E1526F" transform="translate(160,41)"/>
<path d="M0 0 C0.66 0.33 1.32 0.66 2 1 C4.09821215 0.60061233 4.09821215 0.60061233 6 0 C1.69230769 4.92307692 1.69230769 4.92307692 -1.8125 5.3125 C-2.8953125 5.1578125 -2.8953125 5.1578125 -4 5 C-4.33 4.34 -4.66 3.68 -5 3 C-4.34 3 -3.68 3 -3 3 C-3 2.34 -3 1.68 -3 1 C-2.01 0.67 -1.02 0.34 0 0 Z " fill="#B920CF" transform="translate(149,34)"/>
<path d="M0 0 C0.66 0 1.32 0 2 0 C-0.39918542 5.19823509 -3.10747369 9.85480451 -8 13 C-5.78707083 8.40391633 -3.31869574 3.89586022 0 0 Z " fill="#4D279E" transform="translate(128,59)"/>
<path d="M0 0 C2.88437779 1.29299694 4.87219421 2.65941363 7 5 C3.70303895 6.09898702 2.59505097 5.87124444 -0.6875 5.0625 C-1.49574219 4.86785156 -2.30398437 4.67320313 -3.13671875 4.47265625 C-3.75160156 4.31667969 -4.36648437 4.16070312 -5 4 C-4.360625 3.525625 -3.72125 3.05125 -3.0625 2.5625 C-1.11706694 1.16261274 -1.11706694 1.16261274 0 0 Z " fill="#F7C161" transform="translate(202,51)"/>
<path d="M0 0 C0.66 0.33 1.32 0.66 2 1 C1.34 1.66 0.68 2.32 0 3 C0 4.32 0 5.64 0 7 C-6.625 9 -6.625 9 -10 9 C-6.7 6.03 -3.4 3.06 0 0 Z " fill="#8A33AB" transform="translate(135,40)"/>
<path d="M0 0 C1.7290774 -0.02725341 3.45828176 -0.04650987 5.1875 -0.0625 C6.15042969 -0.07410156 7.11335937 -0.08570312 8.10546875 -0.09765625 C10.85576513 -0.00486622 13.32479591 0.37888315 16 1 C16 1.66 16 2.32 16 3 C14.02 3.33 12.04 3.66 10 4 C9.67 3.34 9.34 2.68 9 2 C6.87423218 1.53348793 6.87423218 1.53348793 4.4375 1.375 C3.61121094 1.30023437 2.78492188 1.22546875 1.93359375 1.1484375 C1.29550781 1.09945313 0.65742188 1.05046875 0 1 C0 0.67 0 0.34 0 0 Z " fill="#9D69AE" transform="translate(186,18)"/>
<path d="M0 0 C0.33 0.99 0.66 1.98 1 3 C0.67 3.66 0.34 4.32 0 5 C0.66 5.33 1.32 5.66 2 6 C0.71034824 7.37562854 -0.62689293 8.70766393 -2 10 C-2.66 10 -3.32 10 -4 10 C-3.43454163 6.04179141 -2.19097652 3.3340947 0 0 Z " fill="#60ABC2" transform="translate(129,174)"/>
<path d="M0 0 C0.25 6.625 0.25 6.625 -2 10 C-4 7 -4 7 -3.75 3.875 C-3.37875 2.451875 -3.37875 2.451875 -3 1 C-1 0 -1 0 0 0 Z " fill="#8C5582" transform="translate(158,116)"/>
<path d="M0 0 C2.64752004 2.57784846 4.94432065 4.91648098 7 8 C6.625 10.1875 6.625 10.1875 6 12 C5.566875 11.236875 5.13375 10.47375 4.6875 9.6875 C3.18425665 7.03472375 3.18425665 7.03472375 1.3125 5.4375 C0 4 0 4 0 0 Z " fill="#C44C7A" transform="translate(194,81)"/>
<path d="M0 0 C0.33 0.99 0.66 1.98 1 3 C0.01 3.33 -0.98 3.66 -2 4 C-2 4.66 -2 5.32 -2 6 C-7.625 8 -7.625 8 -11 8 C-9.5433323 6.85204994 -8.08461063 5.70670581 -6.625 4.5625 C-5.40683594 3.60537109 -5.40683594 3.60537109 -4.1640625 2.62890625 C-2 1 -2 1 0 0 Z " fill="#951EB7" transform="translate(159,32)"/>
<path d="M0 0 C1 3 1 3 1 5 C-3.455 5.495 -3.455 5.495 -8 6 C-8 5.34 -8 4.68 -8 4 C-5.33440687 2.22293791 -2.9719385 1.12451727 0 0 Z " fill="#267BB7" transform="translate(109,158)"/>
<path d="M0 0 C1.65 1.65 3.3 3.3 5 5 C5 3.35 5 1.7 5 0 C5.33 0 5.66 0 6 0 C6.1953125 6.0546875 6.1953125 6.0546875 6 8 C5.34 8.66 4.68 9.32 4 10 C3.67 8.68 3.34 7.36 3 6 C2.34 6 1.68 6 1 6 C0.67 4.02 0.34 2.04 0 0 Z " fill="#A323A5" transform="translate(137,112)"/>
<path d="M0 0 C7.42857143 -0.28571429 7.42857143 -0.28571429 11 2 C11 2.99 11 3.98 11 5 C7.27566618 3.7874262 3.62197194 2.49140021 0 1 C0 0.67 0 0.34 0 0 Z " fill="#B54572" transform="translate(176,85)"/>
<path d="M0 0 C0.66 0 1.32 0 2 0 C1.43697042 3.94120709 0.3208055 6.7508723 -2 10 C-2.66 10 -3.32 10 -4 10 C-4 8.68 -4 7.36 -4 6 C-3.01 6 -2.02 6 -1 6 C-1.020625 5.195625 -1.04125 4.39125 -1.0625 3.5625 C-1 1 -1 1 0 0 Z " fill="#631178" transform="translate(150,94)"/>
<path d="M0 0 C3.40136289 1.37912403 4.69605565 2.62611859 6.25 5.9375 C6.58515625 6.62714844 6.9203125 7.31679687 7.265625 8.02734375 C8 10 8 10 8 13 C6.0625 11.9375 6.0625 11.9375 4 10 C3.25 6.3125 3.25 6.3125 3 3 C2.01 2.67 1.02 2.34 0 2 C0 1.34 0 0.68 0 0 Z " fill="#451986" transform="translate(132,83)"/>
<path d="M0 0 C0.66 0.66 1.32 1.32 2 2 C4.65719837 2.68177998 4.65719837 2.68177998 7.625 3.125 C8.62789062 3.29257812 9.63078125 3.46015625 10.6640625 3.6328125 C11.43492187 3.75398438 12.20578125 3.87515625 13 4 C13 4.33 13 4.66 13 5 C10.72858891 4.88597936 8.45785448 4.75841495 6.1875 4.625 C4.92292969 4.55539063 3.65835938 4.48578125 2.35546875 4.4140625 C-1 4 -1 4 -4 2 C-2.68 2 -1.36 2 0 2 C0 1.34 0 0.68 0 0 Z " fill="#E7686A" transform="translate(174,48)"/>
<path d="M0 0 C-0.54269531 0.32613281 -1.08539063 0.65226562 -1.64453125 0.98828125 C-2.35996094 1.42527344 -3.07539063 1.86226562 -3.8125 2.3125 C-4.87404297 2.95638672 -4.87404297 2.95638672 -5.95703125 3.61328125 C-7.88960231 4.92506467 -9.41410612 6.29403845 -11 8 C-11 6.35 -11 4.7 -11 3 C-9.68 3 -8.36 3 -7 3 C-7 2.01 -7 1.02 -7 0 C-3.98968256 -0.93423645 -3.13349732 -1.04449911 0 0 Z " fill="#A12999" transform="translate(167,32)"/>
<path d="M0 0 C0.12375 0.639375 0.2475 1.27875 0.375 1.9375 C0.684375 2.9584375 0.684375 2.9584375 1 4 C1.66 4.33 2.32 4.66 3 5 C2.01 5.33 1.02 5.66 0 6 C0 6.99 0 7.98 0 9 C-1.65 9.33 -3.3 9.66 -5 10 C-4.67 9.34 -4.34 8.68 -4 8 C-3.01 8 -2.02 8 -1 8 C-1.20625 7.4225 -1.4125 6.845 -1.625 6.25 C-2.08661261 3.48032433 -1.42944945 2.35438733 0 0 Z " fill="#226EA6" transform="translate(115,152)"/>
<path d="M0 0 C0.33 0 0.66 0 1 0 C1 2.64 1 5.28 1 8 C-1.475 7.01 -1.475 7.01 -4 6 C-3.67 4.68 -3.34 3.36 -3 2 C-2.01 2.33 -1.02 2.66 0 3 C0 2.01 0 1.02 0 0 Z " fill="#9D1442" transform="translate(110,116)"/>
<path d="M0 0 C2.97 0.495 2.97 0.495 6 1 C5 3 4 5 3 7 C2.01 6.67 1.02 6.34 0 6 C0 4.02 0 2.04 0 0 Z " fill="#C57E77" transform="translate(50,82)"/>
<path d="M0 0 C1.9375 0.8125 1.9375 0.8125 4 2 C4.33 2.99 4.66 3.98 5 5 C4.01 6.485 4.01 6.485 3 8 C2.34 8 1.68 8 1 8 C0 2.25 0 2.25 0 0 Z " fill="#E081A9" transform="translate(204,65)"/>
<path d="M0 0 C0 0.99 0 1.98 0 3 C0.66 3.66 1.32 4.32 2 5 C-1.96 6.98 -1.96 6.98 -6 9 C-4.68775452 5.06326356 -3.08089673 2.77280706 0 0 Z " fill="#C04088" transform="translate(152,42)"/>
<path d="M0 0 C1.32 0 2.64 0 4 0 C4 0.99 4 1.98 4 3 C5.32 3.66 6.64 4.32 8 5 C6.02 5.33 4.04 5.66 2 6 C1.34 4.02 0.68 2.04 0 0 Z " fill="#D98C5B" transform="translate(186,38)"/>
<path d="M0 0 C-1.48781815 3.78717347 -3.61988409 5.77407001 -7 8 C-7.99 7.67 -8.98 7.34 -10 7 C-8.71372289 5.82739389 -7.42080217 4.6620717 -6.125 3.5 C-5.04605469 2.52546875 -5.04605469 2.52546875 -3.9453125 1.53125 C-2 0 -2 0 0 0 Z " fill="#D4587F" transform="translate(164,34)"/>
<path d="M0 0 C0.33 0 0.66 0 1 0 C1.24979445 1.91408757 1.47408014 3.83151611 1.6875 5.75 C1.87892578 7.35101563 1.87892578 7.35101563 2.07421875 8.984375 C1.99001814 12.40557866 1.30925485 13.55420823 -1 16 C-1.33 15.01 -1.66 14.02 -2 13 C-1.67 12.67 -1.34 12.34 -1 12 C-0.76572222 9.98405418 -0.58663876 7.961526 -0.4375 5.9375 C-0.35371094 4.83277344 -0.26992187 3.72804687 -0.18359375 2.58984375 C-0.12300781 1.73519531 -0.06242188 0.88054687 0 0 Z " fill="#783F76" transform="translate(142,153)"/>
<path d="M0 0 C0.99 0 1.98 0 3 0 C3.33 1.65 3.66 3.3 4 5 C2.68 5.33 1.36 5.66 0 6 C-1.125 2.25 -1.125 2.25 0 0 Z " fill="#A30845" transform="translate(119,120)"/>
<path d="M0 0 C-1 1 -1 1 -4.4375 1.4375 C-8.04058997 1.64847551 -8.04058997 1.64847551 -10 4 C-11.32 2.68 -12.64 1.36 -14 0 C-12.04235617 -0.19456705 -10.08384679 -0.38044247 -8.125 -0.5625 C-6.48917969 -0.71912109 -6.48917969 -0.71912109 -4.8203125 -0.87890625 C-2 -1 -2 -1 0 0 Z " fill="#4F295B" transform="translate(99,113)"/>
<path d="M0 0 C1.65 0 3.3 0 5 0 C5.33 1.32 5.66 2.64 6 4 C4.35 3.67 2.7 3.34 1 3 C1 4.65 1 6.3 1 8 C0.67 8 0.34 8 0 8 C0 5.36 0 2.72 0 0 Z " fill="#235A95" transform="translate(115,104)"/>
<path d="M0 0 C1.32 0.33 2.64 0.66 4 1 C3.67 1.66 3.34 2.32 3 3 C3.96885372 4.68496298 4.96986723 6.35178756 6 8 C6 8.66 6 9.32 6 10 C5.34 10 4.68 10 4 10 C1.1605948 6.32547562 0 4.73113419 0 0 Z " fill="#602C97" transform="translate(128,96)"/>
<path d="M0 0 C3.77727089 1.81309003 7.37269822 3.9073259 11 6 C8.64316506 6.84172676 7.3613046 7.10948624 4.9375 6.375 C2.46969463 4.62365425 1.39630726 2.65298379 0 0 Z " fill="#A45369" transform="translate(65,84)"/>
<path d="M0 0 C1.98 1.65 3.96 3.3 6 5 C5.67 5.66 5.34 6.32 5 7 C1.63279613 5.60667426 0.0140476 4.0210714 -2 1 C-1.34 0.67 -0.68 0.34 0 0 Z " fill="#F2D188" transform="translate(207,51)"/>
<path d="M0 0 C0.66 0.33 1.32 0.66 2 1 C1.01 1.33 0.02 1.66 -1 2 C-1.061875 2.78375 -1.12375 3.5675 -1.1875 4.375 C-1.455625 5.24125 -1.72375 6.1075 -2 7 C-4.5625 8.3125 -4.5625 8.3125 -7 9 C-7 8.34 -7 7.68 -7 7 C-6.01 6.34 -5.02 5.68 -4 5 C-4.33 4.34 -4.66 3.68 -5 3 C-2.625 1.4375 -2.625 1.4375 0 0 Z " fill="#9030BF" transform="translate(130,47)"/>
<path d="M0 0 C2.31 0 4.62 0 7 0 C6.01 0.33 5.02 0.66 4 1 C2.78130071 3.50447516 2.78130071 3.50447516 2 6 C0 5 0 5 -1 2 C-0.67 1.34 -0.34 0.68 0 0 Z " fill="#D73A66" transform="translate(157,44)"/>
<path d="M0 0 C4.455 0.99 4.455 0.99 9 2 C9 2.33 9 2.66 9 3 C7.7625 3.144375 6.525 3.28875 5.25 3.4375 C2.43495501 3.78688502 -0.2701497 4.20379366 -3 5 C-2.67 4.01 -2.34 3.02 -2 2 C-1.34 2 -0.68 2 0 2 C0 1.34 0 0.68 0 0 Z " fill="#DDA561" transform="translate(192,26)"/>
<path d="M0 0 C0.66 0.66 1.32 1.32 2 2 C-5.42857143 4.42857143 -5.42857143 4.42857143 -9 3 C-6.40257043 -0.46323942 -4.16948329 -0.44356205 0 0 Z " fill="#852891" transform="translate(194,20)"/>
<path d="M0 0 C2.12038635 2.61514317 4.13091744 5.19637616 6 8 C5.34 8.66 4.68 9.32 4 10 C3.13342884 8.90554162 2.28207276 7.79902219 1.4375 6.6875 C0.96183594 6.07261719 0.48617187 5.45773438 -0.00390625 4.82421875 C-0.33261719 4.22222656 -0.66132812 3.62023437 -1 3 C-0.67 2.01 -0.34 1.02 0 0 Z " fill="#05154C" transform="translate(76,100)"/>
<path d="M0 0 C0.33 0.99 0.66 1.98 1 3 C1.66 3.66 2.32 4.32 3 5 C0.69 5 -1.62 5 -4 5 C-4 3.68 -4 2.36 -4 1 C-2.68 0.67 -1.36 0.34 0 0 Z " fill="#B72055" transform="translate(139,65)"/>
<path d="M0 0 C0.33 0 0.66 0 1 0 C1 2.64 1 5.28 1 8 C0.01 8 -0.98 8 -2 8 C-2.33 6.02 -2.66 4.04 -3 2 C-2.01 2.33 -1.02 2.66 0 3 C0 2.01 0 1.02 0 0 Z " fill="#5B679F" transform="translate(126,116)"/>
<path d="M0 0 C0 3.11227195 -0.45627049 5.94152152 -1 9 C-2.65 9 -4.3 9 -6 9 C-4.02 6.03 -2.04 3.06 0 0 Z " fill="#07498D" transform="translate(117,95)"/>
<path d="M0 0 C0.66 0.33 1.32 0.66 2 1 C2.6328125 3.06640625 2.6328125 3.06640625 3.125 5.5625 C3.29257813 6.38878906 3.46015625 7.21507813 3.6328125 8.06640625 C3.75398437 8.70449219 3.87515625 9.34257813 4 10 C3.01 9.67 2.02 9.34 1 9 C0.234375 7.1875 0.234375 7.1875 -0.25 5 C-0.42015625 4.278125 -0.5903125 3.55625 -0.765625 2.8125 C-0.84296875 2.214375 -0.9203125 1.61625 -1 1 C-0.67 0.67 -0.34 0.34 0 0 Z " fill="#5B1E5E" transform="translate(154,94)"/>
<path d="M0 0 C2.015625 1.17578125 2.015625 1.17578125 4 3 C4.171875 5.48046875 4.171875 5.48046875 3.75 8.1875 C3.62109375 9.08855469 3.4921875 9.98960938 3.359375 10.91796875 C3.24078125 11.60503906 3.1221875 12.29210937 3 13 C2.67 13 2.34 13 2 13 C1.66127487 11.58461283 1.32925376 10.16762037 1 8.75 C0.814375 7.96109375 0.62875 7.1721875 0.4375 6.359375 C0 4 0 4 0 0 Z " fill="#1D499A" transform="translate(124,93)"/>
<path d="M0 0 C0.66 0 1.32 0 2 0 C0.68206814 5.66710699 -1.48709197 7.66437233 -6 11 C-4.18690997 7.22272911 -2.0926741 3.62730178 0 0 Z " fill="#362B92" transform="translate(118,72)"/>
<path d="M0 0 C0.90105469 0.02707031 1.80210938 0.05414063 2.73046875 0.08203125 C3.76107422 0.13423828 3.76107422 0.13423828 4.8125 0.1875 C1.65009418 2.29577055 0.30592531 2.52567465 -3.375 2.8125 C-4.72658203 2.92464844 -4.72658203 2.92464844 -6.10546875 3.0390625 C-7.13607422 3.11253906 -7.13607422 3.11253906 -8.1875 3.1875 C-5.67753317 0.01043235 -3.96125134 -0.15433447 0 0 Z " fill="#376895" transform="translate(102.1875,162.8125)"/>
<path d="M0 0 C2.31 0 4.62 0 7 0 C5.68 0.33 4.36 0.66 3 1 C3 1.66 3 2.32 3 3 C3.66 3.33 4.32 3.66 5 4 C3.35 4 1.7 4 0 4 C0 2.68 0 1.36 0 0 Z " fill="#8B1F4F" transform="translate(91,114)"/>
<path d="M0 0 C3.93673644 1.31224548 6.22719294 2.91910327 9 6 C8.67 6.66 8.34 7.32 8 8 C6 6.625 6 6.625 4 5 C4 4.34 4 3.68 4 3 C2.68 2.67 1.36 2.34 0 2 C0 1.34 0 0.68 0 0 Z " fill="#692872" transform="translate(151,87)"/>
<path d="M0 0 C2.31 0 4.62 0 7 0 C4.94766315 2.2477975 3.99332739 3.0022242 1 4 C0.34 3.34 -0.32 2.68 -1 2 C-0.67 1.34 -0.34 0.68 0 0 Z " fill="#3784B2" transform="translate(114,171)"/>
<path d="M0 0 C0.66 0 1.32 0 2 0 C2.33 1.98 2.66 3.96 3 6 C1.35 6 -0.3 6 -2 6 C-1.34 4.02 -0.68 2.04 0 0 Z " fill="#1A83C3" transform="translate(136,160)"/>
<path d="M0 0 C0.66 0.33 1.32 0.66 2 1 C2 1.99 2 2.98 2 4 C0.02 4.33 -1.96 4.66 -4 5 C-3 2 -3 2 0 0 Z " fill="#4E2EA9" transform="translate(135,95)"/>
<path d="M0 0 C4.75 0.875 4.75 0.875 7 2 C6.67 2.66 6.34 3.32 6 4 C3.03 3.505 3.03 3.505 0 3 C0 2.01 0 1.02 0 0 Z " fill="#EC9E58" transform="translate(85,59)"/>
<path d="M0 0 C0.66 1.32 1.32 2.64 2 4 C0.02 4.66 -1.96 5.32 -4 6 C-2.84826645 3.53199953 -1.95216435 1.95216435 0 0 Z " fill="#528A9F" transform="translate(111,173)"/>
<path d="M0 0 C0.33 0.99 0.66 1.98 1 3 C0.67 3.66 0.34 4.32 0 5 C-1.65 5 -3.3 5 -5 5 C-4 2 -4 2 -1.9375 0.8125 C-1.298125 0.544375 -0.65875 0.27625 0 0 Z " fill="#2080C1" transform="translate(121,166)"/>
<path d="M0 0 C0 2.31 0 4.62 0 7 C-0.99 6.67 -1.98 6.34 -3 6 C-3 4.35 -3 2.7 -3 1 C-1 0 -1 0 0 0 Z " fill="#2278B6" transform="translate(126,112)"/>
<path d="M0 0 C1.5 1.3125 1.5 1.3125 3 3 C3 3.99 3 4.98 3 6 C1.35 5.67 -0.3 5.34 -2 5 C-2 4.01 -2 3.02 -2 2 C-1.34 2 -0.68 2 0 2 C0 1.34 0 0.68 0 0 Z " fill="#C364A4" transform="translate(176,103)"/>
<path d="M0 0 C0 0.66 0 1.32 0 2 C-0.66 2 -1.32 2 -2 2 C-2 2.66 -2 3.32 -2 4 C-2.99 4 -3.98 4 -5 4 C-5 4.66 -5 5.32 -5 6 C-5.99 5.67 -6.98 5.34 -8 5 C-2.25 0 -2.25 0 0 0 Z " fill="#4C38A9" transform="translate(106,78)"/>
<path d="M0 0 C1.32 0.33 2.64 0.66 4 1 C4 1.99 4 2.98 4 4 C2.02 4.99 2.02 4.99 0 6 C0 4.02 0 2.04 0 0 Z " fill="#EA7F63" transform="translate(98,72)"/>
<path d="M0 0 C0 3.58534593 -1.02362045 5.07495826 -3 8 C-3.33 8 -3.66 8 -4 8 C-4.25 5.6875 -4.25 5.6875 -4 3 C-2 1.1875 -2 1.1875 0 0 Z " fill="#612387" transform="translate(137,58)"/>
<path d="M0 0 C0.78375 0.04125 1.5675 0.0825 2.375 0.125 C2.045 1.445 1.715 2.765 1.375 4.125 C-0.605 3.465 -2.585 2.805 -4.625 2.125 C-2.625 0.125 -2.625 0.125 0 0 Z " fill="#D16281" transform="translate(190.625,53.875)"/>
<path d="M0 0 C1.9375 0.375 1.9375 0.375 4 1 C4.33 1.66 4.66 2.32 5 3 C4.02149805 4.02104551 3.02019573 5.0206121 2 6 C1.67 6 1.34 6 1 6 C0.67 4.02 0.34 2.04 0 0 Z " fill="#26A2CF" transform="translate(130,170)"/>
<path d="M0 0 C3.34373475 0.55728913 6.03312999 1.35173889 9 3 C9 3.66 9 4.32 9 5 C5.22454612 3.90931332 2.52956528 3.0916909 0 0 Z " fill="#742457" transform="translate(123,132)"/>
<path d="M0 0 C0.99 0.99 1.98 1.98 3 3 C2.01 4.485 2.01 4.485 1 6 C0.34 6 -0.32 6 -1 6 C-1.625 4.125 -1.625 4.125 -2 2 C-1.34 1.34 -0.68 0.68 0 0 Z " fill="#7628B5" transform="translate(139,105)"/>
<path d="M0 0 C0.99 1.485 0.99 1.485 2 3 C2.98095748 4.01868662 3.97702078 5.02351983 5 6 C4.34 7.32 3.68 8.64 3 10 C0.59185923 6.48812804 -0.36629408 4.27343092 0 0 Z " fill="#4A1A5B" transform="translate(144,99)"/>
<path d="M0 0 C5.75 0.875 5.75 0.875 8 2 C7.67 2.99 7.34 3.98 7 5 C3.535 3.02 3.535 3.02 0 1 C0 0.67 0 0.34 0 0 Z " fill="#BD4876" transform="translate(188,90)"/>
<path d="M0 0 C0.66 0.33 1.32 0.66 2 1 C2 2.65 2 4.3 2 6 C0.02 6.99 0.02 6.99 -2 8 C-1.33333333 5.33333333 -0.66666667 2.66666667 0 0 Z " fill="#7F4A89" transform="translate(106,68)"/>
<path d="M0 0 C1.32 0.66 2.64 1.32 4 2 C4 2.66 4 3.32 4 4 C2.35 4.33 0.7 4.66 -1 5 C-1.33 4.34 -1.66 3.68 -2 3 C-1.34 2.01 -0.68 1.02 0 0 Z " fill="#F9B052" transform="translate(196,30)"/>
</svg>
